<svg version="1.1" xmlns="http://www.w3.org/2000/svg" viewBox="0 0 45.126789117490944 40.4397785591554" width="45.126789117490944" height="40.4397785591554"><!-- svg-source:excalidraw --><metadata></metadata><defs><style class="style-fonts">
      </style></defs><g stroke-linecap="round" transform="translate(14.501194389615932 10) rotate(0 10.312797363937506 10.2198892795777)"><path d="M12.73 -0.16 C14.84 0.12, 17.33 1.94, 18.6 3.82 C19.88 5.7, 20.42 8.91, 20.38 11.13 C20.33 13.34, 19.84 15.49, 18.34 17.1 C16.83 18.71, 13.67 20.43, 11.36 20.78 C9.05 21.13, 6.27 20.5, 4.46 19.2 C2.65 17.89, 1.11 15.2, 0.51 12.96 C-0.09 10.72, 0.03 7.75, 0.87 5.77 C1.72 3.79, 3.57 1.96, 5.6 1.09 C7.62 0.23, 11.67 0.61, 13.03 0.6 C14.38 0.59, 13.86 0.89, 13.75 1.02 M12.84 0.29 C15.05 0.6, 17.79 2.55, 19.01 4.32 C20.22 6.09, 20.39 8.72, 20.15 10.92 C19.92 13.13, 18.98 15.96, 17.6 17.54 C16.22 19.12, 13.99 20.14, 11.87 20.41 C9.75 20.69, 6.89 20.38, 4.89 19.17 C2.89 17.96, 0.49 15.4, -0.12 13.17 C-0.74 10.95, 0.22 7.94, 1.2 5.84 C2.18 3.73, 3.72 1.38, 5.76 0.56 C7.79 -0.26, 12.2 1, 13.39 0.9 C14.59 0.8, 13.1 -0.12, 12.94 -0.06" stroke="#1e1e1e" stroke-width="2" fill="none"></path></g><g stroke-linecap="round"><g transform="translate(19.197284211483122 19.75871393055624) rotate(0 -1.5829099367517756 2.696715843206391)"><path d="M0.14 -0.09 C-0.35 0.76, -2.69 4.21, -3.2 5.17 M-0.21 -0.45 C-0.74 0.44, -3.03 4.59, -3.49 5.51" stroke="#1e1e1e" stroke-width="2" fill="none"></path></g></g><mask></mask><g stroke-linecap="round"><g transform="translate(15.446689308836596 25.414628757003698) rotate(0 -2.5495597931185756 -2.3936075005963175)"><path d="M0.11 0.14 C-0.74 -0.75, -4.55 -4.27, -5.45 -5.08 M-0.27 -0.1 C-0.98 -0.97, -3.94 -4.08, -4.83 -4.78" stroke="#1e1e1e" stroke-width="2" fill="none"></path></g></g><mask></mask></svg>