<svg version="1.1" xmlns="http://www.w3.org/2000/svg" viewBox="0 0 177.06046413154093 187.48915704389287" width="177.06046413154093" height="187.48915704389287"><!-- svg-source:excalidraw --><metadata></metadata><defs><style class="style-fonts">
      </style></defs><g stroke-linecap="round"><g transform="translate(71.99870942390567 174.79310184629722) rotate(0 16.392367300504986 -62.66324264284624)" fill-rule="evenodd"><path d="M0.41 -2.2 C2.62 -2.2, 7.39 -2.06, 11.11 -1.64 C14.83 -1.21, 13.45 0.55, 22.75 0.36 C32.05 0.16, 55.17 8.84, 66.89 -2.81 C78.6 -14.47, 93.22 -48.97, 93.05 -69.59 C92.88 -90.21, 78.46 -117.94, 65.87 -126.53 C53.29 -135.11, 33.83 -120.92, 17.55 -121.09 C1.27 -121.27, -18.89 -134.1, -31.83 -127.56 C-44.77 -121.02, -59.41 -101.88, -60.1 -81.87 C-60.78 -61.86, -45.75 -21.34, -35.95 -7.47 C-26.15 6.4, -7.39 0.16, -1.28 1.35" stroke="none" stroke-width="0" fill="#d32f2f" fill-rule="evenodd"></path><path d="M-0.59 -0.5 C1.67 -0.75, 8.81 -0.95, 13 -1.1 C17.18 -1.24, 15.6 -1.13, 24.51 -1.35 C33.42 -1.56, 54.71 8.53, 66.47 -2.39 C78.23 -13.3, 95.22 -46.44, 95.06 -66.84 C94.9 -87.23, 78.84 -115.94, 65.5 -124.78 C52.16 -133.61, 31.19 -119.94, 15.01 -119.84 C-1.17 -119.73, -18.93 -130.57, -31.58 -124.16 C-44.23 -117.76, -59.97 -100.83, -60.87 -81.4 C-61.77 -61.97, -47.15 -21.26, -36.98 -7.57 C-26.8 6.11, -5.91 -0.38, 0.19 0.74 M1.3 -1.8 C3.46 -1.98, 8.31 -0.42, 12.13 -0.13 C15.95 0.17, 15.15 0.67, 24.24 -0.03 C33.34 -0.73, 55.11 7.27, 66.69 -4.32 C78.27 -15.92, 93.67 -49.34, 93.71 -69.61 C93.76 -89.88, 80.05 -117.41, 66.95 -125.96 C53.85 -134.51, 31.7 -121.25, 15.1 -120.9 C-1.5 -120.56, -19.81 -130.83, -32.65 -123.89 C-45.48 -116.96, -60.79 -98.69, -61.93 -79.3 C-63.07 -59.9, -49.9 -20.47, -39.47 -7.51 C-29.05 5.44, -6.25 -2.51, 0.61 -1.55" stroke="#1e1e1e" stroke-width="2" fill="none"></path></g></g><mask></mask><g stroke-linecap="round"><g transform="translate(87.06057545203385 58.05508722160532) rotate(0 -1.6616602228868373 -14.77050687955142)"><path d="M0.11 0.33 C-0.09 -2, -0.04 -8.86, -0.63 -13.86 C-1.21 -18.85, -2.99 -27.06, -3.41 -29.65 M-0.5 0.02 C-0.58 -2.22, 0.89 -8.26, 0.34 -13.11 C-0.21 -17.97, -3.25 -26.48, -3.8 -29.1" stroke="#1e1e1e" stroke-width="2" fill="none"></path></g></g><mask></mask><g stroke-linecap="round"><g transform="translate(86.83634224620698 43.61310613802013) rotate(0 15.184026590162887 -14.830032552295592)" fill-rule="evenodd"><path d="M-0.33 -0.43 C1.41 -5.42, 6.72 -22.84, 12.24 -27.78 C17.75 -32.71, 35.17 -35.03, 32.76 -30.03 C30.36 -25.02, 3.35 -3.02, -2.2 2.25" stroke="none" stroke-width="0" fill="#2e7d32" fill-rule="evenodd"></path><path d="M1.02 0.43 C2.98 -4.55, 7.85 -24.96, 12.56 -29.99 C17.26 -35.01, 31.22 -34.72, 29.26 -29.71 C27.29 -24.7, 5.46 -5.02, 0.76 0.06 M0.09 -0.38 C1.87 -5.24, 6.62 -24.26, 11.87 -28.93 C17.11 -33.61, 33.31 -33.44, 31.57 -28.42 C29.83 -23.4, 6.64 -3.8, 1.41 1.19" stroke="#1e1e1e" stroke-width="2" fill="none"></path></g></g><mask></mask><g stroke-linecap="round"><g transform="translate(40.64970399252809 90.37416050436813) rotate(21.41237521176356 8.550319450762004 -13.094525797652388)" fill-rule="evenodd"><path d="M1.11 -1.68 C2.58 -3.19, 4.01 -6.05, 6.77 -9.95 C9.54 -13.86, 18.75 -22.8, 17.69 -25.12 C16.63 -27.44, 3.31 -27.96, 0.4 -23.88 C-2.52 -19.8, -0.2 -4.37, 0.21 -0.65" stroke="none" stroke-width="0" fill="#ff9aa2" fill-rule="evenodd"></path><path d="M0.28 -0.31 C2.09 -2.06, 7.02 -5.81, 9.74 -9.92 C12.45 -14.04, 18.34 -22.21, 16.58 -24.99 C14.82 -27.78, 1.35 -30.64, -0.83 -26.63 C-3.01 -22.61, 2.79 -5.32, 3.52 -0.91 M-1.03 -1.51 C0.79 -3.17, 5.9 -4.5, 9.22 -8.71 C12.54 -12.91, 20.55 -23.92, 18.9 -26.76 C17.24 -29.6, 2.01 -30.05, -0.71 -25.76 C-3.43 -21.46, 2.15 -5.07, 2.59 -1" stroke="transparent" stroke-width="1" fill="none"></path></g></g><mask></mask></svg>