<svg version="1.1" xmlns="http://www.w3.org/2000/svg" viewBox="0 0 507.0838743701097 537.7182879377217" width="507.0838743701097" height="537.7182879377217"><!-- svg-source:excalidraw --><metadata></metadata><defs><style class="style-fonts">
      </style></defs><g stroke-linecap="round"><g transform="translate(241.36281372163631 527.2196925073922) rotate(0 11.670553089812785 -58.06295093031389)" fill-rule="evenodd"><path d="M-2.42 -0.44 C9.88 -0.98, 57.21 -3.04, 73.71 -3.14 C90.21 -3.24, 91.05 0.4, 96.57 -1.04 C102.1 -2.48, 100.37 -5.12, 106.84 -11.77 C113.31 -18.41, 128.17 -33.57, 135.4 -40.9 C142.64 -48.23, 145.94 -52.16, 150.27 -55.73 C154.59 -59.3, 152.98 -61.56, 161.36 -62.3 C169.73 -63.05, 188.47 -60.22, 200.51 -60.19 C212.55 -60.17, 226.2 -60.26, 233.59 -62.15 C240.97 -64.05, 241.3 -67.54, 244.81 -71.54 C248.31 -75.55, 252.74 -79.05, 254.62 -86.17 C256.51 -93.3, 256.8 -110.51, 256.11 -114.3 C255.42 -118.08, 253.09 -110.55, 250.49 -108.89 C247.89 -107.23, 246.92 -105.02, 240.53 -104.36 C234.14 -103.7, 228.43 -105.22, 212.15 -104.93 C195.86 -104.64, 168.82 -102.82, 142.81 -102.6 C116.8 -102.37, 82.29 -103.61, 56.11 -103.6 C29.93 -103.6, 8.49 -102.76, -14.28 -102.56 C-37.04 -102.36, -64.16 -102.65, -80.49 -102.42 C-96.82 -102.19, -92.18 -100.03, -112.28 -101.17 C-132.38 -102.32, -182.29 -106.54, -201.08 -109.28 C-219.86 -112.03, -219.78 -118.39, -224.99 -117.67 C-230.2 -116.94, -232.08 -110.93, -232.33 -104.92 C-232.59 -98.91, -229.08 -87.83, -226.53 -81.61 C-223.98 -75.39, -221.72 -70.44, -217.02 -67.6 C-212.32 -64.75, -205.22 -65.56, -198.34 -64.54 C-191.45 -63.53, -186.4 -62.51, -175.73 -61.5 C-165.05 -60.48, -143.36 -59.03, -134.31 -58.46 C-125.26 -57.88, -126.24 -60.96, -121.45 -58.05 C-116.66 -55.15, -110.78 -47.72, -105.56 -41.03 C-100.33 -34.35, -93.83 -22.68, -90.11 -17.95 C-86.39 -13.21, -87 -15.72, -83.24 -12.63 C-79.48 -9.53, -78.43 -1.68, -67.56 0.64 C-56.68 2.95, -29.6 1.32, -18 1.25 C-6.39 1.18, -0.55 0.3, 2.07 0.21" stroke="none" stroke-width="0" fill="#cf8b17" fill-rule="evenodd"></path><path d="M0.26 0.5 C12.44 0.46, 56.33 -0.81, 72.23 -1.32 C88.12 -1.84, 89.53 -1.15, 95.62 -2.6 C101.71 -4.06, 102.36 -3.61, 108.77 -10.06 C115.18 -16.51, 127.38 -33.56, 134.06 -41.3 C140.74 -49.05, 144.19 -53.01, 148.86 -56.54 C153.53 -60.06, 153.78 -61.63, 162.06 -62.46 C170.35 -63.3, 186.91 -61.62, 198.58 -61.54 C210.24 -61.46, 223.99 -60.3, 232.03 -61.98 C240.07 -63.65, 243.47 -67.77, 246.81 -71.59 C250.15 -75.4, 250.8 -78.03, 252.05 -84.86 C253.3 -91.69, 254.62 -108.91, 254.3 -112.57 C253.99 -116.22, 252.33 -107.83, 250.17 -106.8 C248 -105.76, 247.23 -106.46, 241.32 -106.36 C235.4 -106.26, 231.05 -106.65, 214.68 -106.22 C198.32 -105.79, 169.2 -104.22, 143.14 -103.77 C117.07 -103.31, 84.29 -103.68, 58.3 -103.51 C32.31 -103.35, 10.36 -103.4, -12.79 -102.76 C-35.95 -102.12, -64.02 -99.58, -80.63 -99.68 C-97.25 -99.77, -92.09 -101.97, -112.48 -103.34 C-132.87 -104.71, -183.87 -105.87, -202.97 -107.88 C-222.08 -109.89, -222.56 -115.93, -227.1 -115.4 C-231.64 -114.88, -230.14 -110.28, -230.23 -104.73 C-230.32 -99.19, -230.04 -88.57, -227.62 -82.15 C-225.2 -75.72, -220.31 -69.57, -215.71 -66.19 C-211.12 -62.8, -207.07 -63, -200.03 -61.84 C-192.98 -60.68, -184.76 -59.76, -173.46 -59.2 C-162.16 -58.65, -141.05 -58.83, -132.25 -58.53 C-123.45 -58.23, -124.85 -60.49, -120.65 -57.38 C-116.44 -54.27, -112.16 -46.27, -107.03 -39.88 C-101.9 -33.5, -94.04 -23.74, -89.87 -19.09 C-85.71 -14.44, -85.76 -14.85, -82.02 -11.97 C-78.27 -9.08, -77.87 -3.63, -67.4 -1.79 C-56.92 0.06, -30.43 -1.15, -19.17 -0.91 C-7.91 -0.66, -3.12 -0.34, 0.14 -0.33 M-1.06 -0.29 C11.07 -0.06, 55.58 0.24, 71.54 -0.03 C87.51 -0.3, 88.48 0.12, 94.73 -1.9 C100.98 -3.92, 102.15 -5.54, 109.03 -12.15 C115.91 -18.75, 129.71 -34.51, 136 -41.53 C142.29 -48.55, 142.31 -51.1, 146.77 -54.29 C151.23 -57.49, 154.31 -59.47, 162.73 -60.69 C171.15 -61.92, 185.49 -61.25, 197.31 -61.64 C209.14 -62.04, 225.3 -61.25, 233.68 -63.06 C242.06 -64.86, 244.58 -68.95, 247.61 -72.47 C250.63 -76, 250.95 -77.41, 251.81 -84.19 C252.67 -90.97, 253.01 -109.37, 252.78 -113.17 C252.56 -116.97, 252.41 -108.1, 250.45 -107 C248.49 -105.9, 246.89 -107.14, 241.03 -106.59 C235.17 -106.03, 231.97 -104.37, 215.28 -103.67 C198.6 -102.97, 167.27 -102.56, 140.91 -102.36 C114.54 -102.17, 82.37 -102.44, 57.07 -102.48 C31.76 -102.52, 11.68 -103.2, -10.93 -102.6 C-33.53 -102, -61.74 -99, -78.56 -98.89 C-95.38 -98.79, -90.94 -100.33, -111.84 -101.97 C-132.75 -103.6, -184.75 -106.32, -204.01 -108.72 C-223.28 -111.12, -223.14 -117.42, -227.43 -116.38 C-231.72 -115.33, -229.91 -107.97, -229.76 -102.45 C-229.6 -96.94, -229.05 -89.48, -226.51 -83.31 C-223.97 -77.14, -219.1 -69.07, -214.52 -65.45 C-209.94 -61.84, -206.12 -62.63, -199.04 -61.61 C-191.97 -60.6, -183.44 -59.61, -172.06 -59.36 C-160.69 -59.11, -139.46 -60.7, -130.78 -60.1 C-122.1 -59.5, -124.12 -59.43, -119.97 -55.75 C-115.82 -52.07, -110.77 -43.91, -105.87 -38.04 C-100.98 -32.16, -94.56 -25.08, -90.59 -20.49 C-86.62 -15.91, -85.64 -13.54, -82.06 -10.54 C-78.49 -7.54, -79.84 -4.3, -69.12 -2.51 C-58.41 -0.71, -29.59 0.02, -17.78 0.24 C-5.96 0.47, -1.35 -1.15, 1.79 -1.18" stroke="#1e1e1e" stroke-width="2" fill="none"></path></g></g><mask></mask><g stroke-linecap="round"><g transform="translate(248.63807659632846 500.55715302115243) rotate(0 5.760057647759396 -244.0532804318227)" fill-rule="evenodd"><path d="M1.72 0.09 C13.44 -0.14, 55.76 0.71, 70.45 -0.16 C85.14 -1.04, 85.06 -3.81, 89.86 -5.14 C94.67 -6.47, 94.37 -2.74, 99.28 -8.15 C104.19 -13.55, 113.94 -30, 119.33 -37.59 C124.72 -45.17, 127.76 -50.1, 131.61 -53.67 C135.46 -57.23, 136.89 -58.11, 142.43 -58.99 C147.98 -59.87, 152 -59.71, 164.88 -58.96 C177.75 -58.21, 209.08 -54.28, 219.66 -54.47 C230.23 -54.65, 225.48 -57.4, 228.32 -60.07 C231.17 -62.74, 234 -67.69, 236.71 -70.47 C239.42 -73.24, 242.41 -72.7, 244.57 -76.72 C246.73 -80.75, 248.54 -72.89, 249.67 -94.64 C250.79 -116.38, 251.49 -170.9, 251.33 -207.18 C251.17 -243.47, 249.23 -273.83, 248.69 -312.35 C248.15 -350.86, 248.73 -411.9, 248.09 -438.29 C247.44 -464.68, 246.74 -463.85, 244.82 -470.7 C242.9 -477.54, 241.23 -476.38, 236.57 -479.35 C231.91 -482.33, 226.72 -486.74, 216.86 -488.54 C207.01 -490.33, 215.76 -489.51, 177.43 -490.12 C139.1 -490.73, 48.38 -492.34, -13.13 -492.19 C-74.64 -492.04, -156.31 -491.64, -191.64 -489.23 C-226.97 -486.82, -217.56 -483.55, -225.11 -477.73 C-232.66 -471.92, -234.89 -467.5, -236.94 -454.34 C-238.98 -441.17, -237.63 -421.14, -237.37 -398.74 C-237.1 -376.33, -235.32 -347.1, -235.36 -319.91 C-235.4 -292.73, -237.25 -263.7, -237.61 -235.62 C-237.96 -207.54, -237.35 -173.85, -237.48 -151.44 C-237.62 -129.03, -238.35 -112.32, -238.44 -101.16 C-238.52 -90, -238.65 -88.34, -238 -84.47 C-237.35 -80.59, -237.23 -81.16, -234.54 -77.88 C-231.85 -74.61, -226.63 -68.01, -221.87 -64.84 C-217.11 -61.68, -212.59 -60.38, -205.99 -58.9 C-199.4 -57.42, -193.55 -56.31, -182.32 -55.95 C-171.09 -55.6, -148.08 -56.42, -138.61 -56.78 C-129.13 -57.14, -128.61 -59.25, -125.45 -58.13 C-122.29 -57.01, -122.48 -53.49, -119.64 -50.04 C-116.8 -46.6, -113.14 -44.06, -108.42 -37.43 C-103.7 -30.81, -96.84 -16.08, -91.31 -10.29 C-85.78 -4.49, -80.81 -4.86, -75.25 -2.66 C-69.7 -0.45, -65.04 2.5, -57.99 2.95 C-50.94 3.41, -40.46 0.24, -32.95 0.05 C-25.45 -0.14, -18.06 1.97, -12.97 1.81 C-7.87 1.66, -4.47 -0.89, -2.39 -0.87" stroke="none" stroke-width="0" fill="#ffbc47" fill-rule="evenodd"></path><path d="M0.28 -0.76 C11.66 -0.7, 53.31 0.25, 68.23 -0.14 C83.16 -0.53, 84.76 -1.69, 89.82 -3.1 C94.89 -4.5, 93.34 -2.71, 98.62 -8.58 C103.89 -14.45, 115.65 -31.05, 121.48 -38.31 C127.31 -45.58, 130.05 -49.13, 133.6 -52.18 C137.15 -55.23, 137.33 -55.82, 142.78 -56.61 C148.22 -57.4, 153.74 -56.77, 166.3 -56.94 C178.85 -57.1, 207.73 -57.07, 218.12 -57.59 C228.51 -58.1, 225.45 -58.21, 228.65 -60.03 C231.85 -61.85, 234.74 -65.42, 237.32 -68.51 C239.9 -71.59, 242.48 -73.96, 244.11 -78.55 C245.75 -83.14, 246.41 -74.49, 247.13 -96.05 C247.84 -117.61, 248.22 -171.7, 248.38 -207.92 C248.55 -244.13, 248.35 -274.59, 248.13 -313.34 C247.91 -352.09, 247.81 -414.46, 247.06 -440.41 C246.31 -466.37, 245.22 -462.31, 243.65 -469.07 C242.08 -475.84, 241.66 -477.67, 237.63 -481 C233.6 -484.34, 229.92 -487.83, 219.47 -489.08 C209.02 -490.33, 213.75 -488.55, 174.93 -488.49 C136.1 -488.43, 47.39 -488.47, -13.47 -488.75 C-74.33 -489.02, -154.7 -491.52, -190.23 -490.15 C-225.76 -488.77, -218.82 -486.52, -226.63 -480.48 C-234.44 -474.43, -235.55 -467.83, -237.07 -453.89 C-238.6 -439.95, -235.89 -419.36, -235.77 -396.84 C-235.66 -374.31, -236 -345.83, -236.39 -318.73 C-236.78 -291.63, -238.04 -262.18, -238.1 -234.24 C-238.16 -206.3, -236.88 -173.28, -236.75 -151.11 C-236.63 -128.94, -237.45 -112.27, -237.36 -101.2 C-237.28 -90.13, -236.84 -88.83, -236.25 -84.7 C-235.66 -80.56, -236.11 -79.74, -233.81 -76.39 C-231.51 -73.04, -226.52 -67.68, -222.44 -64.62 C-218.37 -61.55, -216.09 -59.45, -209.36 -57.99 C-202.62 -56.54, -194.09 -56.06, -182.01 -55.88 C-169.92 -55.69, -146.22 -56.8, -136.84 -56.88 C-127.47 -56.96, -128.84 -57.68, -125.77 -56.37 C-122.71 -55.06, -121.26 -52.62, -118.44 -49.01 C-115.62 -45.39, -113.72 -40.98, -108.86 -34.68 C-104 -28.37, -95.34 -16.89, -89.29 -11.2 C-83.24 -5.51, -78.28 -2.81, -72.57 -0.56 C-66.86 1.7, -61.49 1.99, -55.03 2.32 C-48.56 2.65, -40.45 1.59, -33.77 1.42 C-27.09 1.25, -20.48 1.48, -14.95 1.29 C-9.41 1.09, -2.88 0.52, -0.54 0.24 M-1.03 1.46 C10.71 1.7, 55.31 1.52, 70.34 1 C85.38 0.49, 84.39 -0.26, 89.17 -1.65 C93.95 -3.03, 93.28 -1.26, 99.01 -7.31 C104.74 -13.36, 117.58 -30.41, 123.55 -37.96 C129.51 -45.51, 131.48 -49.36, 134.8 -52.63 C138.11 -55.9, 138.28 -56.93, 143.44 -57.61 C148.6 -58.28, 153.53 -57, 165.77 -56.68 C178.01 -56.36, 206.32 -55.02, 216.89 -55.68 C227.45 -56.35, 225.73 -58.73, 229.14 -60.68 C232.55 -62.63, 234.55 -64.27, 237.34 -67.38 C240.13 -70.49, 244.3 -74.42, 245.88 -79.33 C247.45 -84.24, 246.54 -75.4, 246.79 -96.83 C247.03 -118.25, 247.08 -171.75, 247.36 -207.89 C247.63 -244.02, 248.36 -275.04, 248.42 -313.65 C248.48 -352.26, 248.17 -413.76, 247.71 -439.55 C247.26 -465.33, 247.54 -461.43, 245.69 -468.34 C243.84 -475.25, 241.12 -477.59, 236.61 -481 C232.09 -484.42, 228.87 -487.31, 218.61 -488.84 C208.35 -490.37, 213.86 -490.1, 175.04 -490.18 C136.21 -490.27, 46.53 -489.65, -14.34 -489.36 C-75.21 -489.06, -154.82 -489.69, -190.21 -488.39 C-225.59 -487.09, -219.07 -487.24, -226.65 -481.55 C-234.23 -475.87, -233.91 -468.49, -235.69 -454.27 C-237.46 -440.06, -236.81 -418.77, -237.3 -396.27 C-237.78 -373.76, -238.66 -346.14, -238.6 -319.23 C-238.54 -292.31, -236.96 -262.54, -236.96 -234.77 C-236.97 -206.99, -238.57 -175.09, -238.64 -152.58 C-238.7 -130.08, -237.49 -110.82, -237.34 -99.72 C-237.19 -88.61, -238.21 -89.61, -237.73 -85.95 C-237.25 -82.29, -236.91 -81.52, -234.45 -77.75 C-232 -73.97, -227.37 -66.54, -223.02 -63.31 C-218.66 -60.07, -214.91 -59.24, -208.34 -58.35 C-201.77 -57.45, -195.24 -58.1, -183.59 -57.93 C-171.93 -57.77, -148.19 -57.83, -138.41 -57.38 C-128.63 -56.92, -127.96 -56.42, -124.9 -55.21 C-121.84 -53.99, -122.86 -53.44, -120.06 -50.09 C-117.27 -46.75, -113.14 -41.73, -108.13 -35.14 C-103.12 -28.55, -95.69 -16.31, -89.98 -10.54 C-84.26 -4.77, -79.81 -2.24, -73.83 -0.52 C-67.86 1.19, -61 -0.62, -54.14 -0.27 C-47.29 0.09, -39.08 1.4, -32.69 1.61 C-26.3 1.83, -21.21 1.02, -15.83 1.03 C-10.46 1.04, -3.34 1.97, -0.45 1.67" stroke="#1e1e1e" stroke-width="2" fill="none"></path></g></g><mask></mask><g stroke-linecap="round"><g transform="translate(181.1691674482118 483.20732140555793) rotate(0 72.82741548624446 -228.48806719478264)" fill-rule="evenodd"><path d="M0.84 2.35 C5.74 1.69, 10.54 -1.74, 27.74 -2.38 C44.93 -3.02, 84.86 -1.89, 104 -1.49 C123.14 -1.08, 134.92 0.46, 142.58 0.06 C150.23 -0.34, 146.58 -0.4, 149.93 -3.88 C153.28 -7.36, 157.24 -15.08, 162.67 -20.82 C168.1 -26.56, 177.98 -33.85, 182.51 -38.3 C187.05 -42.75, 186.63 -44.61, 189.87 -47.53 C193.11 -50.45, 197.63 -54.24, 201.96 -55.83 C206.28 -57.42, 203.93 -57.15, 215.81 -57.07 C227.7 -56.98, 261.43 -54.85, 273.26 -55.33 C285.09 -55.8, 283.32 -58.2, 286.78 -59.91 C290.24 -61.62, 292.01 -63, 294.03 -65.58 C296.05 -68.15, 298.35 -70.32, 298.9 -75.34 C299.45 -80.35, 297.39 -75.13, 297.34 -95.65 C297.28 -116.17, 298.42 -158.78, 298.59 -198.46 C298.76 -238.15, 298.28 -295.71, 298.38 -333.74 C298.47 -371.77, 299.22 -409.17, 299.18 -426.63 C299.14 -444.1, 298.69 -434.43, 298.12 -438.54 C297.56 -442.65, 297.76 -448.61, 295.82 -451.29 C293.87 -453.98, 291.93 -453.81, 286.47 -454.64 C281.01 -455.47, 281.66 -455.56, 263.07 -456.27 C244.47 -456.98, 203.26 -458.82, 174.92 -458.88 C146.57 -458.94, 119.69 -457.16, 93 -456.64 C66.31 -456.12, 36.93 -455.72, 14.79 -455.76 C-7.34 -455.8, -24.54 -457.45, -39.82 -456.88 C-55.1 -456.3, -63.51 -452.74, -76.9 -452.3 C-90.29 -451.87, -110.4 -453.96, -120.17 -454.26 C-129.94 -454.56, -131.33 -454.17, -135.53 -454.11 C-139.73 -454.05, -142.71 -455.97, -145.36 -453.91 C-148.01 -451.86, -150.06 -445.73, -151.41 -441.76 C-152.75 -437.8, -153.45 -436.35, -153.43 -430.12 C-153.41 -423.88, -151.69 -421.49, -151.29 -404.35 C-150.88 -387.21, -150.88 -357.86, -150.98 -327.28 C-151.07 -296.71, -151.63 -254, -151.84 -220.93 C-152.04 -187.85, -152.03 -150.66, -152.22 -128.82 C-152.41 -106.98, -153.11 -99.52, -152.96 -89.87 C-152.8 -80.22, -151.47 -75.38, -151.29 -70.92 C-151.11 -66.46, -153.56 -65.44, -151.89 -63.13 C-150.22 -60.83, -144.57 -58.62, -141.28 -57.1 C-137.99 -55.58, -139.88 -53.87, -132.15 -54.02 C-124.42 -54.16, -105.37 -57.55, -94.91 -57.96 C-84.45 -58.36, -75.42 -56.66, -69.38 -56.46 C-63.33 -56.25, -62.92 -57.33, -58.65 -56.73 C-54.38 -56.14, -46.96 -55.12, -43.74 -52.89 C-40.53 -50.66, -45.26 -50.54, -39.38 -43.35 C-33.5 -36.16, -14.77 -16.75, -8.47 -9.75 C-2.16 -2.75, -2.69 -2.9, -1.56 -1.34" stroke="none" stroke-width="0" fill="#f9a83a" fill-rule="evenodd"></path><path d="M0.14 0.07 C5.21 0.15, 11.75 0.84, 29.34 0.65 C46.93 0.45, 86.84 -1.1, 105.68 -1.09 C124.52 -1.08, 134.88 1.12, 142.39 0.73 C149.9 0.34, 147.07 -0.22, 150.74 -3.44 C154.4 -6.66, 159.51 -12.73, 164.37 -18.6 C169.23 -24.47, 175.65 -33.48, 179.91 -38.67 C184.17 -43.87, 186.49 -47, 189.91 -49.78 C193.33 -52.55, 196.62 -54.02, 200.43 -55.32 C204.24 -56.62, 200.39 -57.24, 212.77 -57.59 C225.15 -57.95, 262.38 -57.35, 274.71 -57.47 C287.04 -57.6, 283.52 -57.3, 286.75 -58.34 C289.99 -59.39, 292.23 -61.01, 294.13 -63.73 C296.04 -66.46, 297.54 -69.43, 298.18 -74.7 C298.83 -79.97, 298.28 -75.1, 298 -95.37 C297.71 -115.63, 296.7 -156.78, 296.5 -196.29 C296.3 -235.8, 296.61 -293.95, 296.79 -332.41 C296.97 -370.87, 297.59 -409.02, 297.58 -427.05 C297.58 -445.08, 297.58 -436.94, 296.74 -440.6 C295.91 -444.27, 294.6 -446.88, 292.57 -449.05 C290.53 -451.22, 289.36 -452.49, 284.56 -453.65 C279.76 -454.8, 281.84 -455.38, 263.75 -456 C245.67 -456.62, 204.64 -457.63, 176.03 -457.36 C147.42 -457.09, 119.18 -454.8, 92.08 -454.39 C64.98 -453.98, 35.39 -454.84, 13.41 -454.89 C-8.56 -454.94, -24.96 -454.73, -39.79 -454.68 C-54.62 -454.64, -62.18 -454.76, -75.58 -454.61 C-88.98 -454.45, -110.07 -453.63, -120.2 -453.77 C-130.33 -453.9, -132.14 -455.81, -136.36 -455.41 C-140.57 -455.01, -142.88 -453.29, -145.47 -451.36 C-148.06 -449.44, -150.81 -447.5, -151.9 -443.86 C-153 -440.23, -152.33 -436.53, -152.05 -429.56 C-151.76 -422.58, -150.1 -418.88, -150.19 -402.01 C-150.27 -385.14, -152.37 -358.78, -152.56 -328.33 C-152.75 -297.89, -151.4 -252.39, -151.32 -219.32 C-151.24 -186.26, -151.88 -151.18, -152.06 -129.93 C-152.24 -108.67, -152.26 -101.46, -152.41 -91.79 C-152.56 -82.12, -153.29 -76.48, -152.94 -71.91 C-152.58 -67.33, -151.85 -66.35, -150.3 -64.35 C-148.75 -62.35, -146.36 -61.09, -143.64 -59.9 C-140.92 -58.72, -142.07 -57.73, -133.99 -57.24 C-125.92 -56.75, -105.87 -57, -95.18 -56.98 C-84.48 -56.96, -75.89 -57.17, -69.83 -57.14 C-63.77 -57.11, -62.62 -57.9, -58.8 -56.8 C-54.98 -55.7, -50.13 -52.53, -46.92 -50.56 C-43.7 -48.58, -45.64 -51.96, -39.51 -44.95 C-33.39 -37.95, -16.51 -15.74, -10.16 -8.53 C-3.8 -1.32, -2.63 -2.96, -1.37 -1.69 M-1.25 -0.95 C3.84 -1.22, 11.08 -1.25, 28.85 -1.08 C46.63 -0.91, 86.52 0.12, 105.41 0.07 C124.3 0.02, 134.32 -0.91, 142.2 -1.39 C150.09 -1.87, 148.82 0.16, 152.74 -2.82 C156.65 -5.79, 161.11 -13.1, 165.71 -19.25 C170.31 -25.4, 176.4 -34.51, 180.35 -39.71 C184.3 -44.9, 186.3 -47.58, 189.42 -50.41 C192.54 -53.23, 195.13 -55.43, 199.05 -56.65 C202.96 -57.88, 200.28 -57.72, 212.91 -57.75 C225.54 -57.78, 262.7 -56.6, 274.83 -56.84 C286.95 -57.09, 282.44 -57.96, 285.68 -59.22 C288.92 -60.49, 292.28 -61.77, 294.25 -64.42 C296.22 -67.06, 296.9 -69.89, 297.51 -75.09 C298.12 -80.29, 297.95 -75.65, 297.9 -95.62 C297.85 -115.58, 297.06 -155.5, 297.22 -194.88 C297.38 -234.26, 298.47 -293.22, 298.85 -331.91 C299.23 -370.6, 299.53 -408.88, 299.49 -427.02 C299.46 -445.17, 299.82 -436.86, 298.65 -440.77 C297.48 -444.67, 294.47 -448.19, 292.48 -450.46 C290.48 -452.72, 291.51 -453.28, 286.68 -454.35 C281.85 -455.41, 282.04 -456.73, 263.49 -456.83 C244.94 -456.93, 204.2 -455.23, 175.39 -454.95 C146.58 -454.68, 117.4 -455.24, 90.63 -455.18 C63.85 -455.12, 36.24 -454.7, 14.74 -454.59 C-6.77 -454.48, -23.53 -454.44, -38.4 -454.53 C-53.28 -454.62, -60.57 -455.06, -74.49 -455.15 C-88.42 -455.23, -111.7 -455.2, -121.95 -455.05 C-132.19 -454.89, -132.33 -454.71, -135.97 -454.22 C-139.62 -453.73, -141.12 -454.11, -143.82 -452.12 C-146.53 -450.13, -150.9 -446.28, -152.19 -442.29 C-153.49 -438.31, -151.66 -434.91, -151.57 -428.2 C-151.49 -421.49, -151.74 -418.33, -151.71 -402.06 C-151.67 -385.78, -151.19 -361.44, -151.37 -330.56 C-151.55 -299.67, -152.7 -250.31, -152.79 -216.75 C-152.88 -183.18, -152.25 -150.32, -151.89 -129.15 C-151.52 -107.99, -150.52 -99.26, -150.63 -89.73 C-150.74 -80.2, -152.49 -76.27, -152.56 -71.99 C-152.62 -67.71, -152.8 -65.97, -151 -64.06 C-149.2 -62.14, -144.68 -61.64, -141.78 -60.5 C-138.88 -59.35, -141.02 -57.82, -133.58 -57.18 C-126.15 -56.55, -108.17 -56.72, -97.16 -56.69 C-86.15 -56.65, -73.88 -57.18, -67.5 -56.99 C-61.13 -56.81, -62.72 -56.66, -58.9 -55.57 C-55.08 -54.47, -47.58 -52.19, -44.58 -50.42 C-41.57 -48.65, -46.42 -51.81, -40.84 -44.95 C-35.27 -38.09, -17.8 -16.79, -11.13 -9.26 C-4.45 -1.72, -2.11 -0.95, -0.77 0.27" stroke="#1e1e1e" stroke-width="2" fill="none"></path></g></g><mask></mask><g stroke-linecap="round"><g transform="translate(266.46093387560984 398.3869355044012) rotate(0 -6.553267339945421 -154.29965827689577)" fill-rule="evenodd"><path d="M1.64 -0.87 C9.38 -2.97, 35.54 -7.46, 47.89 -12.14 C60.24 -16.81, 66.77 -19.87, 75.75 -28.92 C84.72 -37.97, 95.55 -52.39, 101.73 -66.43 C107.91 -80.48, 111.31 -99.87, 112.81 -113.19 C114.3 -126.51, 112.67 -137.01, 110.71 -146.36 C108.76 -155.71, 102.51 -157.34, 101.07 -169.3 C99.63 -181.25, 101.82 -203.07, 102.05 -218.1 C102.27 -233.14, 106.63 -244.5, 102.4 -259.51 C98.16 -274.52, 87.39 -296.72, 76.65 -308.18 C65.92 -319.64, 48.48 -325.11, 37.97 -328.27 C27.46 -331.44, 22.69 -329.49, 13.6 -327.15 C4.52 -324.81, -7.81 -316, -16.53 -314.24 C-25.26 -312.49, -30.29 -318.3, -38.74 -316.61 C-47.19 -314.93, -58.63 -310.06, -67.24 -304.12 C-75.85 -298.19, -83.41 -289.87, -90.41 -280.99 C-97.41 -272.11, -104.41 -261.83, -109.25 -250.84 C-114.08 -239.85, -117.52 -225.14, -119.41 -215.07 C-121.29 -205, -120.96 -198.72, -120.56 -190.43 C-120.16 -182.14, -116.59 -171.09, -117.01 -165.33 C-117.43 -159.56, -121.17 -161.41, -123.08 -155.85 C-124.99 -150.29, -127.62 -143.41, -128.47 -131.94 C-129.32 -120.48, -128.11 -99.52, -128.18 -87.06 C-128.26 -74.6, -130.79 -68.39, -128.93 -57.18 C-127.07 -45.96, -123.1 -30.44, -117.01 -19.77 C-110.93 -9.11, -100.86 1.24, -92.42 6.81 C-83.99 12.37, -74.8 11.91, -66.39 13.63 C-57.98 15.36, -49.88 16.9, -41.95 17.17 C-34.02 17.44, -25.85 18.4, -18.82 15.28 C-11.78 12.16, -3.01 0.68, 0.25 -1.55" stroke="none" stroke-width="0" fill="#ffffff" fill-rule="evenodd"></path><path d="M-0.2 -0.64 C7.6 -2.62, 32.89 -5.81, 45.85 -10.77 C58.81 -15.74, 68.28 -21.39, 77.56 -30.41 C86.84 -39.44, 95.26 -50.88, 101.53 -64.91 C107.8 -78.94, 113.48 -101.2, 115.2 -114.59 C116.93 -127.98, 114.4 -135.6, 111.87 -145.22 C109.34 -154.84, 101.69 -160.21, 100 -172.32 C98.32 -184.42, 101.35 -203.25, 101.78 -217.86 C102.22 -232.47, 106.98 -245.41, 102.6 -259.98 C98.21 -274.55, 86.34 -294.04, 75.46 -305.29 C64.58 -316.54, 47.87 -324.03, 37.33 -327.5 C26.8 -330.97, 21.32 -327.84, 12.25 -326.12 C3.17 -324.4, -9.09 -319.19, -17.1 -317.17 C-25.12 -315.15, -27.49 -316.23, -35.86 -314 C-44.24 -311.76, -58.25 -309.47, -67.37 -303.77 C-76.48 -298.07, -83.62 -288.22, -90.54 -279.79 C-97.47 -271.36, -104.64 -263.79, -108.91 -253.18 C-113.19 -242.57, -114.13 -226.78, -116.19 -216.13 C-118.24 -205.47, -120.97 -197.82, -121.24 -189.24 C-121.52 -180.66, -117.6 -170.35, -117.84 -164.65 C-118.09 -158.95, -121.2 -160.19, -122.71 -155.06 C-124.22 -149.93, -126.16 -145.07, -126.89 -133.87 C-127.61 -122.66, -127.02 -100.59, -127.06 -87.83 C-127.11 -75.07, -128.71 -68.46, -127.16 -57.3 C-125.61 -46.13, -123.83 -31.82, -117.76 -20.85 C-111.69 -9.87, -99.09 2.32, -90.74 8.56 C-82.39 14.81, -75.45 14.87, -67.67 16.62 C-59.89 18.36, -51.98 19.73, -44.05 19.02 C-36.13 18.31, -27.46 15.41, -20.1 12.36 C-12.74 9.3, -3.35 2.55, 0.09 0.68 M-1.77 1.64 C6.52 0.38, 35.19 -3.58, 48.24 -9.26 C61.3 -14.95, 67.65 -22.82, 76.55 -32.46 C85.44 -42.11, 95.33 -53.44, 101.6 -67.14 C107.87 -80.83, 112.73 -101.95, 114.16 -114.62 C115.59 -127.29, 112.49 -133.86, 110.18 -143.16 C107.87 -152.45, 101.82 -157.9, 100.29 -170.39 C98.77 -182.89, 100.91 -202.98, 101.02 -218.11 C101.14 -233.24, 105.21 -246.65, 100.99 -261.17 C96.77 -275.69, 86.27 -294.23, 75.69 -305.21 C65.12 -316.19, 48.33 -323.53, 37.55 -327.05 C26.77 -330.57, 20.11 -328.41, 11.01 -326.36 C1.9 -324.31, -9.21 -316.85, -17.1 -314.77 C-24.99 -312.69, -27.94 -315.59, -36.32 -313.89 C-44.7 -312.2, -57.95 -310.41, -67.37 -304.6 C-76.8 -298.8, -86.23 -287.65, -92.85 -279.06 C-99.47 -270.46, -103.07 -263.51, -107.07 -253.05 C-111.07 -242.59, -114.79 -227.01, -116.85 -216.31 C-118.92 -205.62, -119.42 -197.28, -119.44 -188.88 C-119.46 -180.48, -116.31 -171.34, -116.98 -165.92 C-117.65 -160.5, -121.82 -162.03, -123.48 -156.34 C-125.13 -150.65, -126.35 -143.08, -126.91 -131.78 C-127.48 -120.47, -126.51 -100.88, -126.86 -88.52 C-127.21 -76.16, -130.21 -68.94, -129.01 -57.62 C-127.81 -46.29, -125.71 -31.63, -119.66 -20.56 C-113.61 -9.48, -101.04 2.62, -92.72 8.84 C-84.4 15.06, -78.03 15.24, -69.74 16.77 C-61.44 18.3, -51.31 18.55, -42.95 18.01 C-34.6 17.47, -27.07 16.58, -19.61 13.53 C-12.15 10.48, -1.54 1.97, 1.81 -0.31" stroke="#1e1e1e" stroke-width="2" fill="none"></path></g></g><mask></mask><g stroke-linecap="round"><g transform="translate(252.75864761936032 359.2523030419964) rotate(0 6.553267339945393 -116.46943317812023)" fill-rule="evenodd"><path d="M-2.02 1.96 C1.95 2.48, 16.86 3.33, 24.63 1.61 C32.41 -0.12, 37.17 -4.28, 44.65 -8.38 C52.12 -12.47, 62.49 -15.16, 69.5 -22.95 C76.5 -30.75, 82.88 -43.6, 86.68 -55.14 C90.47 -66.67, 92.99 -82.76, 92.24 -92.16 C91.49 -101.56, 85.05 -105.83, 82.17 -111.54 C79.3 -117.25, 75.21 -117.69, 74.99 -126.42 C74.77 -135.14, 80.31 -152.7, 80.86 -163.88 C81.42 -175.05, 78.93 -184.43, 78.32 -193.47 C77.7 -202.51, 78.83 -210.69, 77.19 -218.11 C75.54 -225.53, 72.26 -233.92, 68.45 -237.96 C64.63 -242, 60.54 -240.48, 54.27 -242.36 C48 -244.24, 36.83 -248.83, 30.83 -249.24 C24.82 -249.66, 22.01 -246.35, 18.27 -244.84 C14.53 -243.34, 12.2 -240.9, 8.38 -240.24 C4.57 -239.57, 0.54 -241.36, -4.61 -240.85 C-9.75 -240.34, -16.35 -240.25, -22.5 -237.16 C-28.64 -234.08, -36.45 -227.08, -41.49 -222.34 C-46.53 -217.6, -49.24 -213.67, -52.72 -208.72 C-56.21 -203.77, -59.91 -198.33, -62.38 -192.66 C-64.86 -186.99, -66.05 -181.75, -67.58 -174.69 C-69.11 -167.63, -71.07 -159.11, -71.56 -150.3 C-72.06 -141.49, -69.79 -129.62, -70.55 -121.82 C-71.31 -114.02, -74.66 -112.52, -76.12 -103.49 C-77.57 -94.46, -79.27 -80.29, -79.3 -67.65 C-79.32 -55.02, -76.65 -37.7, -76.29 -27.67 C-75.93 -17.64, -79.6 -13.9, -77.16 -7.45 C-74.73 -0.99, -66.53 7.3, -61.7 11.06 C-56.88 14.81, -53.65 13.68, -48.21 15.07 C-42.77 16.46, -34.97 19.94, -29.07 19.39 C-23.16 18.84, -17.53 14.89, -12.8 11.76 C-8.08 8.63, -2.57 2.55, -0.72 0.6" stroke="none" stroke-width="0" fill="#f9a83a" fill-rule="evenodd"></path><path d="M0.25 -0.55 C4.24 -0.25, 17.12 3.13, 24.95 1.88 C32.77 0.62, 39.86 -3.6, 47.22 -8.08 C54.58 -12.55, 62.37 -17.55, 69.08 -24.99 C75.79 -32.43, 83.83 -41.82, 87.49 -52.71 C91.15 -63.6, 91.8 -80.23, 91.04 -90.32 C90.28 -100.41, 85.57 -107.29, 82.91 -113.24 C80.26 -119.2, 75.72 -117.52, 75.1 -126.05 C74.49 -134.58, 78.52 -152.98, 79.22 -164.43 C79.91 -175.89, 79.6 -186.13, 79.29 -194.78 C78.97 -203.43, 79.11 -209.6, 77.32 -216.35 C75.54 -223.11, 72.02 -230.78, 68.56 -235.3 C65.1 -239.83, 62.64 -240.9, 56.58 -243.51 C50.51 -246.12, 39.05 -250.84, 32.16 -250.99 C25.27 -251.14, 19.21 -246.45, 15.24 -244.42 C11.27 -242.39, 11.24 -239.69, 8.36 -238.82 C5.48 -237.95, 3.29 -239.63, -2.04 -239.2 C-7.37 -238.77, -16.92 -238.9, -23.6 -236.24 C-30.29 -233.58, -37.27 -227.56, -42.16 -223.23 C-47.05 -218.91, -49.74 -215.28, -52.94 -210.3 C-56.14 -205.32, -58.87 -199.3, -61.36 -193.36 C-63.85 -187.41, -66.64 -181.45, -67.87 -174.61 C-69.11 -167.78, -68.63 -161.25, -68.77 -152.34 C-68.92 -143.44, -67.78 -129.02, -68.74 -121.18 C-69.69 -113.33, -73.09 -114.05, -74.49 -105.26 C-75.9 -96.47, -76.49 -80.94, -77.15 -68.44 C-77.82 -55.94, -78.99 -40.13, -78.49 -30.26 C-77.98 -20.4, -76.66 -15.75, -74.14 -9.23 C-71.62 -2.71, -68.01 4.47, -63.36 8.86 C-58.71 13.25, -52.18 15.65, -46.24 17.11 C-40.31 18.57, -33.36 18.73, -27.74 17.62 C-22.12 16.52, -17.34 13.31, -12.53 10.5 C-7.73 7.7, -1.01 2.45, 1.09 0.78 M-1.08 1.78 C2.76 1.72, 16.65 1.62, 24.58 0.12 C32.52 -1.39, 39.08 -3.2, 46.54 -7.25 C53.99 -11.3, 62.74 -16.75, 69.32 -24.18 C75.89 -31.61, 82.12 -40.61, 85.97 -51.84 C89.81 -63.07, 92.74 -81.08, 92.39 -91.54 C92.05 -102.01, 86.92 -108.83, 83.92 -114.62 C80.92 -120.4, 75.42 -118.29, 74.41 -126.26 C73.4 -134.24, 76.85 -150.93, 77.85 -162.47 C78.85 -174.02, 80.39 -186.7, 80.4 -195.53 C80.4 -204.35, 80.05 -208.77, 77.89 -215.42 C75.74 -222.06, 70.95 -230.65, 67.48 -235.41 C64.02 -240.16, 63.12 -241.25, 57.11 -243.94 C51.11 -246.64, 38.45 -251.51, 31.46 -251.59 C24.46 -251.67, 18.77 -246.23, 15.13 -244.44 C11.48 -242.65, 12.56 -241.31, 9.58 -240.84 C6.59 -240.37, 2.37 -242.49, -2.8 -241.64 C-7.97 -240.79, -15.17 -238.87, -21.42 -235.73 C-27.68 -232.59, -35.21 -226.81, -40.34 -222.82 C-45.48 -218.83, -48.6 -216.53, -52.23 -211.79 C-55.87 -207.06, -59.51 -200.47, -62.14 -194.4 C-64.77 -188.33, -66.98 -182.78, -68.03 -175.37 C-69.08 -167.96, -68.54 -158.82, -68.44 -149.97 C-68.34 -141.12, -66.18 -129.67, -67.42 -122.26 C-68.66 -114.85, -73.93 -114.45, -75.89 -105.5 C-77.85 -96.55, -78.96 -81.54, -79.19 -68.56 C-79.42 -55.57, -77.8 -37.81, -77.26 -27.61 C-76.71 -17.41, -78.23 -13.62, -75.91 -7.35 C-73.6 -1.07, -68 6.23, -63.37 10.07 C-58.74 13.91, -53.91 14.7, -48.12 15.68 C-42.32 16.66, -34.46 16.53, -28.6 15.96 C-22.74 15.4, -17.67 14.84, -12.97 12.29 C-8.27 9.75, -2.88 3.03, -0.41 0.69" stroke="#1e1e1e" stroke-width="2" fill="none"></path></g></g><mask></mask><g stroke-linecap="round"><g transform="translate(227.0092732022082 315.55178092391145) rotate(0 30.76903324804337 -71.05654440735186)" fill-rule="evenodd"><path d="M-1.25 0.86 C2.4 2.42, 13.88 8.32, 21.45 10.16 C29.02 11.99, 36.54 13.11, 44.16 11.89 C51.79 10.68, 61.38 8.6, 67.19 2.85 C73.01 -2.89, 77.05 -14.85, 79.06 -22.57 C81.06 -30.29, 80.76 -36.87, 79.2 -43.49 C77.65 -50.1, 74.23 -57.59, 69.73 -62.27 C65.22 -66.95, 57.82 -69.01, 52.18 -71.56 C46.54 -74.11, 41.01 -75.41, 35.89 -77.6 C30.76 -79.79, 25.58 -82.77, 21.44 -84.7 C17.3 -86.64, 12.78 -86.79, 11.07 -89.23 C9.36 -91.66, 11.13 -93.04, 11.18 -99.3 C11.22 -105.56, 10.97 -120.43, 11.35 -126.8 C11.73 -133.18, 10.77 -134.68, 13.45 -137.55 C16.14 -140.42, 23.63 -144.39, 27.44 -144.02 C31.25 -143.65, 33.39 -139.4, 36.32 -135.33 C39.24 -131.26, 42.35 -123.61, 44.97 -119.6 C47.58 -115.59, 50.38 -115.17, 51.99 -111.28 C53.6 -107.39, 52.7 -100.06, 54.61 -96.25 C56.53 -92.45, 61.26 -88.34, 63.49 -88.46 C65.72 -88.59, 67.07 -92.18, 68.01 -97.01 C68.95 -101.85, 68.85 -110.71, 69.14 -117.5 C69.44 -124.29, 69.6 -130.56, 69.76 -137.78 C69.92 -144.99, 70.27 -155.48, 70.11 -160.8 C69.95 -166.12, 70.45 -168.21, 68.8 -169.71 C67.15 -171.21, 63.03 -171.55, 60.2 -169.78 C57.36 -168.02, 53.12 -163.57, 51.78 -159.11 C50.44 -154.65, 53.75 -143.95, 52.15 -143.02 C50.55 -142.08, 45.52 -150.74, 42.2 -153.48 C38.87 -156.22, 36.72 -158.2, 32.21 -159.45 C27.7 -160.69, 20.69 -162.3, 15.13 -160.97 C9.57 -159.64, 2.24 -156.38, -1.15 -151.46 C-4.53 -146.53, -3.38 -138.66, -5.18 -131.44 C-6.98 -124.21, -11.7 -116.03, -11.97 -108.12 C-12.24 -100.2, -8.63 -90.08, -6.79 -83.97 C-4.95 -77.86, -4.51 -74.83, -0.95 -71.43 C2.61 -68.04, 8.64 -66.41, 14.59 -63.6 C20.53 -60.8, 28.59 -56.68, 34.74 -54.61 C40.9 -52.53, 46.52 -53.98, 51.51 -51.13 C56.51 -48.28, 63.05 -41.22, 64.71 -37.49 C66.38 -33.76, 63.61 -32.48, 61.5 -28.77 C59.38 -25.05, 57.1 -18.74, 52.02 -15.18 C46.95 -11.61, 38.78 -6.53, 31.04 -7.39 C23.3 -8.26, 10.74 -15.52, 5.58 -20.35 C0.42 -25.18, 0.49 -31.6, 0.08 -36.38 C-0.34 -41.17, 4.19 -45.84, 3.11 -49.07 C2.03 -52.31, -3.44 -54.26, -6.43 -55.77 C-9.42 -57.29, -12.84 -61.04, -14.82 -58.17 C-16.81 -55.3, -18 -44.89, -18.34 -38.55 C-18.67 -32.22, -16.68 -28.63, -16.83 -20.16 C-16.98 -11.68, -19.15 4.68, -19.23 12.29 C-19.3 19.9, -18.46 22.76, -17.27 25.52 C-16.07 28.27, -14.84 28.71, -12.05 28.85 C-9.27 28.98, -3.05 28.45, -0.58 26.35 C1.89 24.25, 2.33 20.99, 2.76 16.27 C3.19 11.55, 2.84 0.46, 2.01 -1.98" stroke="none" stroke-width="0" fill="#ffffff" fill-rule="evenodd"></path><path d="M0.16 -0.93 C3.25 0.3, 12.01 6.03, 19.68 8.07 C27.35 10.11, 38.51 12.5, 46.17 11.31 C53.83 10.13, 59.75 6.26, 65.63 0.97 C71.52 -4.32, 78.75 -12.7, 81.49 -20.42 C84.24 -28.14, 83.81 -38.1, 82.09 -45.35 C80.38 -52.6, 75.95 -59.35, 71.19 -63.91 C66.43 -68.47, 59.07 -70.41, 53.55 -72.73 C48.04 -75.04, 43.71 -76.29, 38.1 -77.79 C32.49 -79.29, 24.2 -80.25, 19.9 -81.73 C15.6 -83.22, 14.15 -83.69, 12.31 -86.69 C10.47 -89.69, 9.08 -93.09, 8.85 -99.72 C8.61 -106.35, 9.69 -120.01, 10.89 -126.47 C12.09 -132.93, 13.52 -136.07, 16.07 -138.49 C18.62 -140.91, 23.01 -141.62, 26.18 -141 C29.34 -140.38, 31.88 -138.09, 35.05 -134.76 C38.21 -131.42, 42.61 -125.37, 45.17 -121 C47.74 -116.64, 49.13 -112.86, 50.44 -108.58 C51.76 -104.31, 51.13 -98.71, 53.06 -95.36 C54.99 -92.02, 59.14 -88.16, 62.03 -88.52 C64.92 -88.88, 69.11 -92.89, 70.4 -97.53 C71.69 -102.17, 69.55 -109.24, 69.78 -116.36 C70.01 -123.48, 71.24 -133.01, 71.78 -140.24 C72.33 -147.47, 73.69 -154.58, 73.06 -159.75 C72.42 -164.93, 70.28 -169.47, 67.96 -171.3 C65.64 -173.13, 61.65 -172.28, 59.15 -170.74 C56.64 -169.2, 53.99 -166.27, 52.92 -162.05 C51.84 -157.82, 54.43 -146.95, 52.69 -145.38 C50.94 -143.8, 46.25 -150.09, 42.46 -152.61 C38.67 -155.13, 34.61 -159.34, 29.93 -160.49 C25.25 -161.63, 19.31 -161.15, 14.37 -159.48 C9.43 -157.81, 3.87 -154.83, 0.29 -150.48 C-3.3 -146.12, -5.23 -140.62, -7.14 -133.34 C-9.05 -126.07, -11.18 -115.23, -11.17 -106.84 C-11.17 -98.46, -8.98 -89.04, -7.13 -83.03 C-5.28 -77.02, -3.59 -74.18, -0.08 -70.77 C3.43 -67.37, 7.78 -64.78, 13.92 -62.59 C20.05 -60.4, 30.01 -59.62, 36.75 -57.63 C43.48 -55.65, 49.9 -53.8, 54.33 -50.66 C58.75 -47.53, 61.97 -42.71, 63.29 -38.81 C64.61 -34.91, 64.15 -31.5, 62.24 -27.28 C60.32 -23.07, 57.12 -16.51, 51.78 -13.53 C46.44 -10.54, 37.63 -7.82, 30.17 -9.37 C22.71 -10.92, 11.86 -18.13, 7.03 -22.82 C2.19 -27.51, 2.27 -33.07, 1.15 -37.53 C0.02 -41.98, 1.41 -46.39, 0.26 -49.54 C-0.89 -52.69, -3.45 -55.35, -5.75 -56.41 C-8.05 -57.48, -11.25 -58.52, -13.54 -55.93 C-15.83 -53.33, -18.43 -46.74, -19.52 -40.84 C-20.6 -34.94, -20.05 -29.48, -20.06 -20.52 C-20.06 -11.55, -19.94 5.5, -19.56 12.96 C-19.19 20.43, -19.39 21.53, -17.81 24.27 C-16.23 27.01, -12.73 29.21, -10.09 29.38 C-7.46 29.54, -3.77 27.31, -1.98 25.26 C-0.19 23.22, 0.46 21.23, 0.62 17.12 C0.78 13.01, -0.74 3.55, -1.04 0.62 M-1.22 1.2 C1.61 2.52, 10.95 7.94, 18.71 9.31 C26.48 10.69, 37.51 10.69, 45.36 9.45 C53.21 8.21, 59.99 6.8, 65.82 1.89 C71.66 -3.03, 78 -12.03, 80.39 -20.05 C82.78 -28.08, 81.56 -39.29, 80.18 -46.26 C78.8 -53.24, 76.69 -57.39, 72.14 -61.91 C67.59 -66.43, 58.78 -70.48, 52.87 -73.37 C46.96 -76.25, 41.99 -77.81, 36.68 -79.22 C31.37 -80.64, 24.96 -80.24, 21.01 -81.86 C17.05 -83.49, 15.2 -85.86, 12.93 -88.97 C10.67 -92.09, 7.81 -94.25, 7.43 -100.55 C7.06 -106.85, 9.32 -120.47, 10.68 -126.76 C12.03 -133.05, 12.83 -135.9, 15.55 -138.29 C18.27 -140.68, 23.61 -141.91, 27 -141.09 C30.39 -140.27, 32.53 -136.86, 35.89 -133.36 C39.24 -129.86, 44.87 -124.33, 47.12 -120.1 C49.37 -115.86, 48.57 -112.12, 49.38 -107.93 C50.19 -103.74, 49.86 -98.01, 51.98 -94.97 C54.1 -91.93, 59.13 -89.62, 62.07 -89.7 C65.02 -89.78, 68.39 -91.38, 69.67 -95.47 C70.94 -99.56, 69.3 -107.16, 69.75 -114.25 C70.2 -121.33, 72.08 -130.25, 72.37 -137.97 C72.67 -145.7, 72 -155, 71.5 -160.6 C71 -166.2, 71.78 -169.83, 69.38 -171.57 C66.99 -173.31, 59.65 -172.5, 57.13 -171.05 C54.61 -169.59, 54.75 -167.44, 54.27 -162.84 C53.78 -158.24, 56.23 -144.81, 54.2 -143.42 C52.17 -142.04, 45.9 -151.43, 42.07 -154.52 C38.25 -157.61, 35.86 -160.88, 31.27 -161.95 C26.69 -163.01, 19.75 -162.58, 14.57 -160.91 C9.39 -159.25, 4.14 -156.42, 0.21 -151.97 C-3.72 -147.52, -7.31 -141.43, -9 -134.24 C-10.7 -127.05, -9.98 -117.27, -9.98 -108.83 C-9.98 -100.39, -10.63 -90.12, -9.01 -83.6 C-7.39 -77.07, -3.83 -73.04, -0.27 -69.69 C3.29 -66.34, 6.1 -65.33, 12.35 -63.5 C18.6 -61.66, 30.32 -60.83, 37.24 -58.69 C44.17 -56.54, 49.8 -54.01, 53.9 -50.63 C58 -47.25, 60.37 -42.38, 61.85 -38.39 C63.33 -34.4, 64.75 -30.85, 62.78 -26.68 C60.81 -22.51, 55.65 -16.27, 50.03 -13.36 C44.41 -10.44, 36.15 -7.76, 29.06 -9.2 C21.97 -10.64, 12.25 -17.16, 7.48 -22 C2.7 -26.84, 1.34 -33.75, 0.41 -38.23 C-0.53 -42.7, 2.51 -45.78, 1.88 -48.84 C1.24 -51.9, -0.41 -55.17, -3.42 -56.59 C-6.43 -58.02, -13.52 -60.36, -16.19 -57.39 C-18.86 -54.41, -18.89 -44.84, -19.44 -38.72 C-20 -32.6, -19.7 -29.57, -19.51 -20.66 C-19.33 -11.74, -18.68 7.3, -18.35 14.75 C-18.02 22.19, -19.06 21.5, -17.55 24.01 C-16.03 26.51, -11.71 29.4, -9.25 29.78 C-6.79 30.16, -4.21 28.51, -2.79 26.31 C-1.36 24.11, -1.07 21.05, -0.7 16.56 C-0.34 12.07, -0.77 2.34, -0.6 -0.64" stroke="#1e1e1e" stroke-width="2" fill="none"></path></g></g><mask></mask></svg>