<svg version="1.1" xmlns="http://www.w3.org/2000/svg" viewBox="0 0 290.8890568900995 380.07572627623495" width="290.8890568900995" height="380.07572627623495"><!-- svg-source:excalidraw --><metadata></metadata><defs><style class="style-fonts">
      </style></defs><g stroke-linecap="round" transform="translate(10 27.35886404348301) rotate(0 125.74004615064104 171.35843111637595)"><path d="M-0.03 1.29 L249.51 -0.26 L251.15 341.26 L-1.64 344.27" stroke="none" stroke-width="0" fill="#c5bcdd"></path><path d="M0 0 C79.94 0.29, 162.23 0.01, 251.48 0 M0 0 C90.22 -1.39, 180.44 -2.43, 251.48 0 M251.48 0 C248.11 77.27, 250.38 155.72, 251.48 342.72 M251.48 0 C251.17 71.49, 251.78 143.34, 251.48 342.72 M251.48 342.72 C189.29 342.04, 124.89 341.92, 0 342.72 M251.48 342.72 C174.54 342.6, 98.14 342.69, 0 342.72 M0 342.72 C-1.35 231.75, -0.97 122.22, 0 0 M0 342.72 C-1.86 219.91, -1.29 97.5, 0 0" stroke="#000000" stroke-width="4" fill="none"></path></g><g stroke-linecap="round"><g transform="translate(179.5938303446311 27.30496663916992) rotate(0 41.52510477375881 41.00387658094185)" fill-rule="evenodd"><path d="M-1.97 -0.26 L0.45 80.55 L81.41 82.47 L1.58 -1.98" stroke="none" stroke-width="0" fill="#9d90c5" fill-rule="evenodd"></path><path d="M0 0 C0.89 22.53, 1.24 45.66, 0.78 82.01 M0 0 C0 31, -0.21 62.64, 0.78 82.01 M0.78 82.01 C33.85 81.98, 61.99 81.55, 83.05 80.91 M0.78 82.01 C23.94 82.43, 45.77 81.6, 83.05 80.91 M83.05 80.91 C55.71 53.17, 29.78 29.68, 0 0 M83.05 80.91 C58.75 57.78, 35.75 34.4, 0 0 M0 0 C0 0, 0 0, 0 0 M0 0 C0 0, 0 0, 0 0" stroke="#000" stroke-width="4" fill="none"></path></g></g><mask></mask><g stroke-linecap="round"><g transform="translate(184.4083982760825 15.434808154993078) rotate(179.75453245381487 45.090397447025765 48.934386333600145)"><path d="M0 0 C-0.21 30.27, -0.41 60.54, -0.7 103.11 M0 0 C-0.25 36.08, -0.49 72.16, -0.7 103.11 M-0.7 103.11 C24.17 101.1, 49.05 99.09, 96.25 95.28 M-0.7 103.11 C29.97 100.63, 60.65 98.16, 96.25 95.28 M96.25 95.28 C72.17 71.63, 48.09 47.97, -6.07 -5.24 M96.25 95.28 C64.44 64.04, 32.64 32.79, -6.07 -5.24" stroke="transparent" stroke-width="4" fill="none"></path></g></g><mask></mask><g stroke-linecap="round"><g transform="translate(109.96562574079911 164.05644543287642) rotate(0 28.58742507970939 41.881670021386526)" fill-rule="evenodd"><path d="M-1.64 1.55 L0 81.79 L57.27 54.32 L1.72 1.22" stroke="none" stroke-width="0" fill="#fff" fill-rule="evenodd"></path><path d="M0 0 C1.81 22.91, 0.62 45.84, -1.58 83.76 M0 0 C-0.13 17.58, -1.74 37.84, -1.58 83.76 M-1.58 83.76 C16.44 73.3, 35.44 65.67, 58.76 52.4 M-1.58 83.76 C22.07 72.01, 44.55 59.11, 58.76 52.4 M58.76 52.4 C45.14 39.21, 32.17 27.08, 0 0 M58.76 52.4 C39.8 35.15, 20.63 18.53, 0 0 M0 0 C0 0, 0 0, 0 0 M0 0 C0 0, 0 0, 0 0" stroke="#000" stroke-width="4" fill="none"></path></g></g><mask></mask><g stroke-linecap="round" transform="translate(35.93317390434095 58.66184631868751) rotate(0 15.168905530558447 11.9947212025711)"><path d="M0.79 -0.99 L29.59 0.96 L31.2 24.6 L-0.58 24.62" stroke="none" stroke-width="0" fill="#9d90c5"></path><path d="M0 0 C9.07 -0.19, 16.35 -0.71, 30.34 0 M0 0 C6.05 0.53, 12.55 -0.31, 30.34 0 M30.34 0 C30.47 7.64, 31.17 13.95, 30.34 23.99 M30.34 0 C30.04 7.88, 30 15.99, 30.34 23.99 M30.34 23.99 C20.08 23.04, 9.84 24.11, 0 23.99 M30.34 23.99 C20.3 23.8, 10.82 24.2, 0 23.99 M0 23.99 C-0.5 15.48, -0.34 6.61, 0 0 M0 23.99 C0.03 14.88, -0.29 6.89, 0 0" stroke="#000" stroke-width="4" fill="none"></path></g><g stroke-linecap="round" transform="translate(35.842211717461794 121.08083271022471) rotate(0 15.168905530558447 11.9947212025711)"><path d="M-0.75 0.96 L31.2 0.61 L29.76 24.62 L-0.87 24.98" stroke="none" stroke-width="0" fill="#9d90c5"></path><path d="M0 0 C7.98 -0.7, 16.6 0.86, 30.34 0 M0 0 C6.24 -0.58, 12.46 -0.24, 30.34 0 M30.34 0 C31.22 5.51, 30.69 12.18, 30.34 23.99 M30.34 0 C29.9 8.57, 30.47 17.06, 30.34 23.99 M30.34 23.99 C23.73 24.1, 16.96 24, 0 23.99 M30.34 23.99 C23.26 24.24, 15.54 24.16, 0 23.99 M0 23.99 C-0.24 18.44, 0.7 11.94, 0 0 M0 23.99 C-0.39 17.49, 0.41 9.71, 0 0" stroke="#000" stroke-width="4" fill="none"></path></g><g stroke-linecap="round" transform="translate(36.324276367268794 181.78624174576814) rotate(0 15.168905530558447 11.9947212025711)"><path d="M0.86 0.61 L29.76 0.63 L29.47 24.98 L0.43 24.66" stroke="none" stroke-width="0" fill="#9d90c5"></path><path d="M0 0 C7.53 0.94, 15.99 -0.32, 30.34 0 M0 0 C11.45 0.02, 22.64 0.22, 30.34 0 M30.34 0 C30.77 8.38, 31.01 15.75, 30.34 23.99 M30.34 0 C30.46 6.62, 29.88 13.4, 30.34 23.99 M30.34 23.99 C24.07 24.16, 16.71 23.95, 0 23.99 M30.34 23.99 C22.22 24.28, 13.14 23.85, 0 23.99 M0 23.99 C0.68 15.41, -0.09 8.63, 0 0 M0 23.99 C0.49 18.04, -0.27 13.56, 0 0" stroke="#000" stroke-width="4" fill="none"></path></g><g stroke-linecap="round" transform="translate(34.93794741663828 242.29790481732115) rotate(0 15.168905530558447 11.9947212025711)"><path d="M-0.58 0.63 L29.47 1 L30.76 24.66 L0.78 24.25" stroke="none" stroke-width="0" fill="#9d90c5"></path><path d="M0 0 C5.94 -0.56, 14.55 -0.11, 30.34 0 M0 0 C6.07 0.12, 12.85 0.47, 30.34 0 M30.34 0 C30.94 5.37, 30.16 11.32, 30.34 23.99 M30.34 0 C30.01 7.34, 29.97 14.68, 30.34 23.99 M30.34 23.99 C20.01 23.94, 10.48 24.96, 0 23.99 M30.34 23.99 C19.15 23.82, 8.73 23.9, 0 23.99 M0 23.99 C-0.21 16.67, -0.8 8.85, 0 0 M0 23.99 C-0.47 15.41, 0.34 6.17, 0 0" stroke="#000" stroke-width="4" fill="none"></path></g><g stroke-linecap="round" transform="translate(37.63059120472889 307.70836499821735) rotate(0 15.168905530558447 11.9947212025711)"><path d="M-0.87 1 L30.76 0.67 L31.12 24.25 L0.6 23.63" stroke="none" stroke-width="0" fill="#9d90c5"></path><path d="M0 0 C12.39 0.08, 22.33 0.08, 30.34 0 M0 0 C8.59 0.41, 16.52 0.14, 30.34 0 M30.34 0 C30.19 6.92, 30.44 15.69, 30.34 23.99 M30.34 0 C29.83 7.07, 30.37 14.05, 30.34 23.99 M30.34 23.99 C20.61 24.93, 11.9 24.6, 0 23.99 M30.34 23.99 C20.09 23.77, 9.67 24.24, 0 23.99 M0 23.99 C-0.71 18.34, 0.79 15.12, 0 0 M0 23.99 C0.52 19.47, -0.2 14.65, 0 0" stroke="#000" stroke-width="4" fill="none"></path></g><g stroke-linecap="round" transform="translate(200.77587389592645 308.22190535993866) rotate(0 15.168905530558447 11.9947212025711)"><path d="M0.43 0.67 L31.12 0.26 L30.94 23.63 L0.04 24.66" stroke="none" stroke-width="0" fill="#9d90c5"></path><path d="M0 0 C6.87 0.01, 15.33 -0.5, 30.34 0 M0 0 C9.35 0.03, 19.29 0.15, 30.34 0 M30.34 0 C30.35 6.06, 30.21 10.55, 30.34 23.99 M30.34 0 C30.35 7.61, 30.3 14.66, 30.34 23.99 M30.34 23.99 C22.03 24.75, 12.97 23.44, 0 23.99 M30.34 23.99 C22.6 24.27, 14.38 23.88, 0 23.99 M0 23.99 C0.86 17.98, -0.9 9.65, 0 0 M0 23.99 C-0.39 14.81, -0.54 5.49, 0 0" stroke="#000" stroke-width="4" fill="none"></path></g><g stroke-linecap="round" transform="translate(202.78100194885928 244.6346488582145) rotate(0 15.168905530558447 11.9947212025711)"><path d="M0.78 0.26 L30.94 -0.35 L30.38 24.66 L0.86 24.76" stroke="none" stroke-width="0" fill="#9d90c5"></path><path d="M0 0 C8.92 -0.5, 18.47 0.42, 30.34 0 M0 0 C11.81 0.23, 23.12 -0.16, 30.34 0 M30.34 0 C30.24 4.72, 30.45 10.1, 30.34 23.99 M30.34 0 C30.43 7.49, 30.33 15.37, 30.34 23.99 M30.34 23.99 C18.76 23.39, 5.93 24.25, 0 23.99 M30.34 23.99 C21.64 24.02, 13.85 23.72, 0 23.99 M0 23.99 C-1.08 18.02, 0.87 14.4, 0 0 M0 23.99 C-0.36 15.82, 0.28 7, 0 0" stroke="#000" stroke-width="4" fill="none"></path></g><g stroke-linecap="round" transform="translate(203.61590903804768 179.58431042102663) rotate(0 15.168905530558447 11.9947212025711)"><path d="M0.6 -0.35 L30.38 0.67 L31.2 24.76 L-0.75 23.65" stroke="none" stroke-width="0" fill="#9d90c5"></path><path d="M0 0 C9.29 0.49, 19.12 -0.41, 30.34 0 M0 0 C9.78 -0.2, 19.84 -0.07, 30.34 0 M30.34 0 C30.43 7.36, 30.55 16.63, 30.34 23.99 M30.34 0 C30.32 7.79, 30.83 16.1, 30.34 23.99 M30.34 23.99 C18.91 24.05, 8.09 23.87, 0 23.99 M30.34 23.99 C19.2 23.61, 7.81 24.36, 0 23.99 M0 23.99 C1.08 15.76, 0.73 5.23, 0 0 M0 23.99 C0.32 15.62, 0.49 6.71, 0 0" stroke="#000" stroke-width="4" fill="none"></path></g><g stroke-linecap="round" transform="translate(203.63634932460093 112.99707790248951) rotate(0 15.168905530558447 11.9947212025711)"><path d="M0.04 0.67 L31.2 0.77 L29.58 23.65 L-0.31 24.95" stroke="none" stroke-width="0" fill="#9d90c5"></path><path d="M0 0 C8.45 -0.55, 15.5 0.12, 30.34 0 M0 0 C10.46 0.05, 21.84 -0.02, 30.34 0 M30.34 0 C30.58 5.64, 30.65 10.95, 30.34 23.99 M30.34 0 C30.8 6.26, 30.64 12.14, 30.34 23.99 M30.34 23.99 C23.04 24, 16.99 23.03, 0 23.99 M30.34 23.99 C21.21 24.27, 13.3 23.38, 0 23.99 M0 23.99 C0.5 18, 0.51 12.31, 0 0 M0 23.99 C0.34 14.53, 0.25 4.64, 0 0" stroke="#000" stroke-width="4" fill="none"></path></g></svg>