<svg version="1.1" xmlns="http://www.w3.org/2000/svg" viewBox="0 0 398.4979523789733 499.88197462316487" width="398.4979523789733" height="499.88197462316487"><!-- svg-source:excalidraw --><metadata></metadata><defs><style class="style-fonts">
      </style></defs><g stroke-linecap="round"><g transform="translate(181.32655363610888 401.16599938768553) rotate(0 20.15936371101739 39.12062179066707)" fill-rule="evenodd"><path d="M-0.51 -1.79 C-2.46 11.49, -22.64 64.62, -13.98 77.72 C-5.32 90.82, 42.33 89.16, 51.45 76.8 C60.57 64.43, 49.26 16, 40.72 3.54 C32.18 -8.91, 7.04 2.88, 0.2 2.05" stroke="none" stroke-width="0" fill="#846358" fill-rule="evenodd"></path><path d="M1.13 0.09 C-1.26 13.15, -22.35 66.11, -13.79 79.24 C-5.23 92.37, 43.41 91.5, 52.47 78.85 C61.52 66.2, 49.32 16.6, 40.55 3.36 C31.77 -9.88, 6.51 -0.03, -0.18 -0.6 M0.26 -0.91 C-1.79 11.75, -20.65 64.68, -11.53 77.64 C-2.42 90.6, 46.3 89.1, 54.96 76.83 C63.61 64.55, 49.82 16.87, 40.37 3.98 C30.92 -8.91, 5.26 0.32, -1.75 -0.52" stroke="#1e1e1e" stroke-width="2" fill="none"></path></g></g><mask></mask><g stroke-linecap="round"><g transform="translate(199.04554986372705 217.9495907239189) rotate(0 -0.21154030316083094 96.2244651772667)" fill-rule="evenodd"><path d="M-0.51 -1.79 C-31.12 30.53, -216.4 159.79, -185.88 191.92 C-155.36 224.06, 151.74 223.11, 182.61 191 C213.49 158.89, 29.77 30.75, -0.63 -0.74" stroke="none" stroke-width="0" fill="#2f9e44" fill-rule="evenodd"></path><path d="M-0.87 1 C-31.99 33.16, -216.35 161.3, -185.6 193.06 C-154.86 224.81, 152.7 223.8, 183.6 191.52 C214.5 159.25, 30.36 31.33, -0.18 -0.6 M0.88 0.48 C-29.96 32.28, -214.16 159.28, -183.3 191.26 C-152.43 223.23, 155.53 224.2, 186.07 192.35 C216.61 160.51, 31.13 32.19, -0.03 0.19" stroke="#1e1e1e" stroke-width="2" fill="none"></path></g></g><mask></mask><g stroke-linecap="round"><g transform="translate(195.18161793513468 133.16737006571742) rotate(0 3.136358783793014 86.81413714896662)" fill-rule="evenodd"><path d="M-1.06 -0.52 C-24.99 28.47, -168.98 143.28, -144.14 172.18 C-119.3 201.08, 123.93 201.24, 147.99 172.88 C172.04 144.53, 24.91 31.11, 0.2 2.05" stroke="none" stroke-width="0" fill="#2f9e44" fill-rule="evenodd"></path><path d="M-0.77 0.61 C-24.49 29.23, -168.02 143.96, -143.15 172.7 C-118.28 201.44, 124.52 201.82, 148.43 173.03 C172.35 144.24, 25.29 28.98, 0.36 -0.03 M1.02 -0.12 C-22.24 29.15, -165.29 144.73, -140.86 173.75 C-116.44 202.78, 123.96 202.82, 147.57 174.03 C171.18 145.25, 25.31 30.25, 0.8 1.06" stroke="#1e1e1e" stroke-width="2" fill="none"></path></g></g><mask></mask><g stroke-linecap="round"><g transform="translate(199.57000844092545 64.65530340848176) rotate(0 0.06668530173800491 68.51460831111528)" fill-rule="evenodd"><path d="M-1.79 -1.45 C-17.89 21.13, -114.19 111.54, -97.67 134.96 C-81.14 158.38, 81.14 161.81, 97.36 139.08 C113.59 116.34, 16.14 21.68, -0.31 -1.45" stroke="none" stroke-width="0" fill="#2f9e44" fill-rule="evenodd"></path><path d="M-0.81 -0.93 C-16.88 21.49, -113.6 112.12, -97.22 135.11 C-80.83 158.1, 81.51 159.68, 97.53 137 C113.54 114.32, 15.18 21.99, -1.11 -0.99 M0.97 1.2 C-15.21 23.72, -114.26 113.48, -98.26 136.33 C-82.26 159.18, 80.81 161.09, 96.95 138.3 C113.08 115.52, 14.41 22.81, -1.45 -0.4" stroke="#1e1e1e" stroke-width="2" fill="none"></path></g></g><mask></mask><g stroke-linecap="round" transform="translate(84.41804970617841 344.36071295192227) rotate(0 12.861574287342592 12.861574287342602)"><path d="M15.76 -0.2 C18.39 0.18, 20.98 2.95, 22.67 5.25 C24.36 7.55, 25.92 10.97, 25.9 13.6 C25.88 16.23, 24.46 19.07, 22.58 21.03 C20.7 22.99, 17.41 24.87, 14.61 25.39 C11.82 25.9, 8.06 25.47, 5.82 24.14 C3.57 22.81, 2 20.14, 1.12 17.41 C0.25 14.67, -0.41 10.35, 0.56 7.72 C1.53 5.08, 4.3 2.9, 6.92 1.6 C9.55 0.31, 14.67 0.07, 16.33 -0.03 C18 -0.14, 17.04 0.64, 16.91 0.99 M14.03 0.15 C16.6 0.31, 20.38 1.76, 22.2 3.8 C24.02 5.85, 24.76 9.77, 24.96 12.41 C25.16 15.04, 24.93 17.5, 23.39 19.61 C21.86 21.73, 18.37 24.33, 15.75 25.11 C13.13 25.88, 10 25.44, 7.67 24.28 C5.33 23.12, 2.97 20.52, 1.75 18.14 C0.53 15.77, -0.35 12.63, 0.34 10.01 C1.04 7.39, 3.72 4.16, 5.89 2.42 C8.07 0.67, 12.02 -0.14, 13.41 -0.47 C14.81 -0.8, 14.1 0.23, 14.27 0.44" stroke="none" stroke-width="0" fill="#c2255c"></path><path d="M13.42 -0.07 C15.98 0.01, 19.46 1.56, 21.48 3.44 C23.5 5.32, 25.27 8.46, 25.55 11.22 C25.84 13.98, 24.75 17.64, 23.19 19.98 C21.63 22.33, 18.72 24.53, 16.19 25.28 C13.65 26.04, 10.52 25.71, 7.99 24.52 C5.45 23.33, 2.23 20.62, 0.98 18.16 C-0.28 15.7, -0.24 12.33, 0.46 9.75 C1.15 7.16, 2.85 4.22, 5.13 2.65 C7.41 1.08, 12.51 0.7, 14.14 0.33 C15.77 -0.04, 15.01 0.16, 14.92 0.41 M12.99 0.47 C15.77 0.29, 20.01 1.2, 22 2.9 C23.99 4.6, 24.6 7.76, 24.95 10.66 C25.3 13.55, 25.48 17.97, 24.09 20.28 C22.69 22.59, 19.3 23.82, 16.58 24.52 C13.87 25.22, 10.4 25.46, 7.78 24.48 C5.15 23.5, 1.96 21.05, 0.82 18.64 C-0.32 16.24, 0.21 12.61, 0.95 10.06 C1.7 7.5, 3.24 5.08, 5.28 3.32 C7.32 1.56, 11.82 0.03, 13.21 -0.48 C14.6 -1, 13.52 0.03, 13.59 0.22" stroke="#000000" stroke-width="2" fill="none"></path></g><g stroke-linecap="round" transform="translate(148.72592114289137 390.44802081489996) rotate(0 12.861574287342592 12.861574287342602)"><path d="M14.39 0.52 C16.97 0.86, 20.69 2.73, 22.59 4.66 C24.49 6.58, 25.75 9.4, 25.8 12.05 C25.84 14.7, 24.61 18.29, 22.85 20.57 C21.09 22.85, 17.81 25.06, 15.22 25.74 C12.63 26.43, 9.73 26.1, 7.29 24.68 C4.86 23.27, 1.69 19.88, 0.61 17.26 C-0.47 14.63, -0.12 11.57, 0.83 8.94 C1.78 6.32, 3.92 2.96, 6.32 1.53 C8.73 0.09, 13.82 0.45, 15.26 0.34 C16.71 0.23, 15.05 0.62, 14.99 0.86 M10.63 0.32 C13.03 -0.25, 15.97 1.08, 18.34 2.3 C20.7 3.51, 23.78 5.19, 24.82 7.61 C25.86 10.03, 25.41 14.16, 24.56 16.82 C23.72 19.49, 21.93 22.17, 19.74 23.59 C17.55 25.02, 14.2 25.68, 11.43 25.38 C8.66 25.08, 4.94 23.81, 3.11 21.78 C1.28 19.75, 0.59 16.13, 0.45 13.21 C0.32 10.3, 0.59 6.44, 2.3 4.3 C4.01 2.16, 9.25 1.11, 10.7 0.39 C12.15 -0.33, 11.09 -0.17, 11.02 -0.04" stroke="none" stroke-width="0" fill="#f08c00"></path><path d="M9.54 0.13 C12.1 -0.68, 16.07 -0.25, 18.54 1.01 C21.01 2.26, 23.3 5.05, 24.38 7.65 C25.46 10.25, 25.7 13.95, 25.03 16.6 C24.35 19.25, 22.66 22.09, 20.34 23.55 C18.01 25.01, 13.86 25.66, 11.06 25.36 C8.26 25.06, 5.43 23.66, 3.55 21.74 C1.68 19.82, -0.03 16.55, -0.21 13.83 C-0.38 11.11, 0.67 7.69, 2.51 5.43 C4.36 3.17, 9.53 1.04, 10.87 0.28 C12.21 -0.48, 10.57 0.75, 10.56 0.89 M14.85 -0.44 C17.44 -0.46, 19.74 1.32, 21.62 3.5 C23.5 5.68, 25.9 9.91, 26.14 12.66 C26.38 15.41, 24.81 17.91, 23.06 20 C21.31 22.08, 18.42 24.47, 15.64 25.18 C12.86 25.88, 8.73 25.44, 6.39 24.23 C4.06 23.02, 2.57 20.33, 1.63 17.92 C0.69 15.51, 0.08 12.51, 0.74 9.78 C1.4 7.05, 3.28 3.17, 5.58 1.55 C7.89 -0.07, 13.05 0.36, 14.56 0.04 C16.07 -0.27, 14.68 -0.62, 14.63 -0.33" stroke="#000000" stroke-width="2" fill="none"></path></g><g stroke-linecap="round" transform="translate(219.46457972327562 341.1453193800866) rotate(0 12.861574287342592 12.861574287342602)"><path d="M10.13 0.75 C12.7 -0.13, 16.36 -0.1, 18.76 1.04 C21.16 2.19, 23.52 4.98, 24.54 7.62 C25.55 10.26, 25.54 14.16, 24.84 16.91 C24.14 19.65, 22.65 22.71, 20.34 24.09 C18.03 25.47, 13.76 25.59, 10.98 25.19 C8.2 24.79, 5.45 23.7, 3.67 21.69 C1.9 19.68, 0.44 15.85, 0.31 13.12 C0.18 10.39, 1.2 7.4, 2.91 5.31 C4.63 3.22, 9.12 1.33, 10.61 0.56 C12.09 -0.2, 11.83 0.55, 11.82 0.71 M12.59 0.72 C15.16 0.54, 19.34 1.01, 21.43 2.71 C23.52 4.4, 24.69 8.11, 25.12 10.89 C25.54 13.68, 25.27 17.07, 23.98 19.41 C22.69 21.74, 20.04 23.93, 17.37 24.9 C14.7 25.87, 10.54 26.21, 7.97 25.23 C5.4 24.24, 3.33 21.57, 1.96 18.98 C0.59 16.39, -0.8 12.37, -0.25 9.68 C0.31 7, 2.93 4.58, 5.29 2.88 C7.65 1.17, 12.64 -0.04, 13.93 -0.53 C15.21 -1.02, 13.01 -0.39, 12.99 -0.08" stroke="none" stroke-width="0" fill="#6741d9"></path><path d="M12.08 -0.35 C14.7 -0.63, 18.11 0.73, 20.31 2.46 C22.5 4.19, 24.5 7.31, 25.24 10.01 C25.98 12.7, 26.02 16.23, 24.74 18.64 C23.47 21.04, 20.19 23.33, 17.59 24.42 C14.99 25.52, 11.78 25.94, 9.16 25.22 C6.53 24.5, 3.36 22.38, 1.85 20.1 C0.33 17.82, -0.39 14.32, 0.06 11.56 C0.5 8.79, 2.53 5.35, 4.52 3.51 C6.5 1.66, 10.59 1.11, 11.97 0.5 C13.35 -0.11, 12.66 -0.21, 12.79 -0.14 M14.11 -0.48 C16.74 -0.09, 21.02 2.72, 22.95 4.79 C24.87 6.85, 25.69 9.27, 25.67 11.91 C25.65 14.56, 24.65 18.42, 22.84 20.66 C21.03 22.91, 17.39 24.81, 14.81 25.4 C12.22 26, 9.62 25.41, 7.32 24.22 C5.03 23.04, 2.21 20.93, 1.05 18.27 C-0.11 15.61, -0.5 10.99, 0.36 8.25 C1.23 5.51, 3.82 3.29, 6.25 1.82 C8.69 0.36, 13.57 -0.37, 14.98 -0.54 C16.39 -0.71, 14.66 0.58, 14.69 0.8" stroke="#000000" stroke-width="2" fill="none"></path></g><g stroke-linecap="round" transform="translate(295.56222759005254 377.58644652755737) rotate(0 12.861574287342592 12.861574287342602)"><path d="M15.48 -0.1 C18.03 0.16, 21.1 2.38, 22.75 4.64 C24.41 6.9, 25.35 10.61, 25.39 13.48 C25.42 16.34, 24.79 19.88, 22.97 21.82 C21.14 23.77, 17.22 24.8, 14.45 25.14 C11.69 25.48, 8.62 25.32, 6.37 23.88 C4.12 22.45, 1.82 19.12, 0.96 16.53 C0.11 13.94, 0.3 10.77, 1.22 8.34 C2.15 5.92, 4.09 3.24, 6.53 1.97 C8.96 0.69, 14.35 0.92, 15.85 0.7 C17.35 0.49, 15.57 0.52, 15.51 0.69 M13.13 -0.58 C15.79 -0.83, 18.76 1.16, 20.87 3.03 C22.98 4.91, 25.19 7.94, 25.78 10.66 C26.36 13.38, 25.85 16.88, 24.37 19.35 C22.89 21.82, 19.52 24.55, 16.9 25.48 C14.28 26.41, 11.28 26.07, 8.63 24.91 C5.99 23.75, 2.39 20.92, 1.05 18.52 C-0.29 16.12, -0.13 13.19, 0.6 10.48 C1.34 7.77, 3.41 4.09, 5.45 2.29 C7.49 0.48, 11.48 -0.01, 12.86 -0.34 C14.23 -0.67, 13.76 0.06, 13.69 0.3" stroke="none" stroke-width="0" fill="#e8590c"></path><path d="M11.18 -0.05 C13.76 -0.43, 17.46 0.67, 19.87 2.22 C22.28 3.76, 24.89 6.62, 25.63 9.22 C26.38 11.81, 25.5 15.24, 24.33 17.78 C23.16 20.32, 21.05 23.17, 18.59 24.47 C16.13 25.77, 12.25 26.21, 9.56 25.58 C6.87 24.96, 3.96 22.97, 2.44 20.72 C0.92 18.46, 0.34 14.77, 0.45 12.05 C0.57 9.34, 1.22 6.52, 3.12 4.45 C5.02 2.38, 10.34 0.4, 11.87 -0.35 C13.4 -1.1, 12.27 -0.39, 12.32 -0.07 M10.97 0.64 C13.62 0, 16.85 -0.22, 19.16 1.04 C21.48 2.29, 23.97 5.47, 24.84 8.15 C25.72 10.83, 25.2 14.46, 24.39 17.11 C23.58 19.75, 22.25 22.5, 20 24.03 C17.75 25.55, 13.76 26.82, 10.89 26.27 C8.01 25.71, 4.56 22.93, 2.76 20.7 C0.96 18.47, 0.02 15.68, 0.09 12.9 C0.15 10.11, 1.4 6.02, 3.14 3.98 C4.87 1.93, 9.14 1.31, 10.48 0.62 C11.82 -0.07, 11.07 -0.39, 11.18 -0.17" stroke="#000000" stroke-width="2" fill="none"></path></g><g stroke-linecap="round" transform="translate(124.07457042548435 238.25272508134583) rotate(0 12.861574287342592 12.861574287342606)"><path d="M15.33 0.08 C17.86 0.56, 20.83 2.94, 22.64 5.21 C24.44 7.48, 26.26 11.09, 26.17 13.72 C26.09 16.35, 24 19.01, 22.12 21 C20.24 22.98, 17.53 25.24, 14.9 25.63 C12.28 26.03, 8.7 24.79, 6.38 23.36 C4.06 21.93, 1.92 19.53, 0.98 17.05 C0.04 14.57, -0.25 11, 0.74 8.48 C1.74 5.96, 4.43 3.25, 6.95 1.92 C9.47 0.59, 14.19 0.65, 15.86 0.52 C17.54 0.39, 16.98 1, 16.99 1.12 M15.41 0.2 C18.03 0.71, 21.62 2.76, 23.42 4.97 C25.22 7.19, 26.44 10.61, 26.22 13.48 C26 16.35, 24 20.13, 22.09 22.17 C20.18 24.21, 17.55 25.56, 14.74 25.71 C11.92 25.86, 7.52 24.57, 5.21 23.06 C2.9 21.54, 1.46 19.28, 0.88 16.63 C0.29 13.98, 0.71 9.78, 1.7 7.17 C2.7 4.57, 4.39 2.13, 6.85 1 C9.3 -0.13, 15.04 0.5, 16.43 0.4 C17.83 0.31, 15.45 0.33, 15.19 0.45" stroke="none" stroke-width="0" fill="#228be6"></path><path d="M10.37 0.25 C13.03 -0.37, 17.24 0.3, 19.62 1.61 C21.99 2.91, 23.71 5.48, 24.61 8.09 C25.52 10.69, 25.95 14.54, 25.04 17.22 C24.13 19.9, 21.55 22.75, 19.16 24.18 C16.77 25.61, 13.3 26.29, 10.69 25.81 C8.09 25.32, 5.36 23.32, 3.5 21.26 C1.64 19.2, -0.39 16.29, -0.46 13.46 C-0.54 10.63, 1.11 6.56, 3.04 4.28 C4.98 2, 9.73 0.41, 11.16 -0.21 C12.59 -0.82, 11.69 0.41, 11.62 0.6 M10.15 -0.36 C12.59 -1.17, 16.5 -0.11, 18.84 1.29 C21.18 2.68, 23.06 5.38, 24.2 7.99 C25.35 10.6, 26.44 14.17, 25.72 16.92 C24.99 19.67, 22.33 23.14, 19.83 24.5 C17.34 25.86, 13.49 25.61, 10.75 25.1 C8 24.58, 5.14 23.48, 3.38 21.4 C1.62 19.32, 0.31 15.29, 0.19 12.61 C0.08 9.93, 0.91 7.5, 2.68 5.34 C4.44 3.18, 9.47 0.36, 10.8 -0.35 C12.13 -1.07, 10.84 0.79, 10.67 1.04" stroke="#000000" stroke-width="2" fill="none"></path></g><g stroke-linecap="round" transform="translate(176.5926654321338 281.1246393724878) rotate(0 12.861574287342592 12.861574287342602)"><path d="M10.3 0.5 C12.95 -0.01, 17.36 0.93, 19.75 2.18 C22.14 3.44, 23.71 5.51, 24.61 8.03 C25.51 10.55, 25.99 14.72, 25.15 17.31 C24.31 19.9, 21.95 22.17, 19.58 23.57 C17.22 24.97, 13.76 26.04, 10.96 25.7 C8.17 25.36, 4.63 23.6, 2.83 21.52 C1.03 19.45, 0.2 16.06, 0.17 13.25 C0.13 10.44, 0.74 6.82, 2.62 4.66 C4.49 2.49, 9.82 1.08, 11.4 0.28 C12.99 -0.53, 12.01 -0.37, 12.11 -0.19 M10.56 -0.02 C13.27 -0.69, 17.21 -0.05, 19.58 1.4 C21.95 2.84, 23.79 6.03, 24.77 8.64 C25.75 11.26, 26.45 14.62, 25.48 17.07 C24.52 19.52, 21.37 21.91, 19 23.35 C16.63 24.79, 13.78 26.14, 11.25 25.71 C8.72 25.29, 5.74 22.95, 3.81 20.8 C1.89 18.64, -0.22 15.45, -0.3 12.79 C-0.37 10.13, 1.71 6.96, 3.38 4.85 C5.05 2.73, 8.67 0.89, 9.72 0.08 C10.78 -0.73, 9.54 -0.33, 9.71 -0.02" stroke="none" stroke-width="0" fill="#ffd43b"></path><path d="M12.45 -0.04 C15.03 -0.42, 18.02 0.57, 20.18 2.22 C22.34 3.87, 24.75 7.11, 25.41 9.88 C26.08 12.64, 25.4 16.29, 24.16 18.79 C22.93 21.3, 20.41 23.82, 17.99 24.9 C15.58 25.98, 12.39 25.99, 9.68 25.26 C6.96 24.52, 3.28 22.86, 1.7 20.49 C0.12 18.13, -0.24 13.94, 0.18 11.06 C0.6 8.18, 2.15 5.01, 4.23 3.21 C6.3 1.41, 11.28 0.83, 12.62 0.26 C13.96 -0.31, 12.36 -0.41, 12.25 -0.19 M14.61 -0.1 C17.14 0.21, 19.9 2.11, 21.85 4.21 C23.81 6.31, 26.13 9.63, 26.34 12.52 C26.56 15.4, 25 19.45, 23.15 21.53 C21.29 23.6, 17.9 24.51, 15.19 24.95 C12.48 25.38, 9.23 25.48, 6.88 24.15 C4.54 22.82, 2.16 19.44, 1.11 16.96 C0.06 14.48, -0.35 11.87, 0.58 9.26 C1.51 6.65, 4.25 2.74, 6.67 1.31 C9.09 -0.13, 13.88 0.86, 15.1 0.64 C16.31 0.43, 13.96 -0.16, 13.96 0.01" stroke="#000000" stroke-width="2" fill="none"></path></g><g stroke-linecap="round" transform="translate(245.18772829796103 247.89890579685277) rotate(0 12.861574287342592 12.861574287342606)"><path d="M12.06 0.52 C14.65 -0.02, 17.56 0.32, 19.79 1.81 C22.03 3.3, 24.61 6.79, 25.45 9.45 C26.3 12.1, 25.98 15.21, 24.86 17.74 C23.75 20.27, 21.32 23.3, 18.76 24.63 C16.19 25.96, 12.18 26.36, 9.49 25.71 C6.79 25.06, 4.21 23.03, 2.57 20.74 C0.93 18.44, -0.55 14.72, -0.36 11.94 C-0.16 9.16, 1.68 6.11, 3.74 4.05 C5.8 1.99, 10.48 0.19, 11.99 -0.44 C13.49 -1.07, 12.82 0.01, 12.77 0.25 M12.67 -0.17 C15.23 -0.37, 18.3 1.31, 20.49 3 C22.68 4.7, 25.28 7.47, 25.83 10 C26.39 12.52, 25.07 15.68, 23.81 18.15 C22.55 20.62, 20.62 23.75, 18.28 24.83 C15.93 25.91, 12.51 25.51, 9.77 24.64 C7.02 23.76, 3.32 21.77, 1.8 19.56 C0.28 17.35, 0.36 14.08, 0.64 11.38 C0.91 8.67, 1.62 5.3, 3.42 3.32 C5.23 1.34, 9.97 -0.07, 11.45 -0.49 C12.92 -0.92, 12.17 0.35, 12.27 0.76" stroke="none" stroke-width="0" fill="#38d9a9"></path><path d="M12.83 -0.27 C15.39 -0.36, 19.3 1.34, 21.38 3.24 C23.47 5.14, 24.93 8.36, 25.34 11.12 C25.75 13.87, 25.15 17.45, 23.83 19.78 C22.51 22.11, 20.12 24.16, 17.44 25.09 C14.76 26.01, 10.38 26.42, 7.76 25.35 C5.13 24.28, 2.91 21.23, 1.7 18.67 C0.49 16.11, -0.07 12.61, 0.49 10.02 C1.06 7.42, 2.99 4.84, 5.1 3.09 C7.2 1.35, 11.75 -0.02, 13.15 -0.44 C14.54 -0.85, 13.36 0.3, 13.46 0.59 M9.54 0.23 C12.18 -0.44, 16.91 0.14, 19.48 1.55 C22.04 2.97, 24.05 6.26, 24.93 8.71 C25.82 11.17, 25.65 13.79, 24.8 16.28 C23.94 18.78, 22.06 22.24, 19.81 23.68 C17.56 25.12, 14.07 25.21, 11.31 24.92 C8.56 24.62, 5.07 23.94, 3.28 21.91 C1.5 19.88, 0.64 15.47, 0.61 12.74 C0.58 10, 1.63 7.64, 3.11 5.5 C4.58 3.37, 8.17 0.7, 9.45 -0.08 C10.73 -0.86, 10.52 0.52, 10.78 0.82" stroke="#000000" stroke-width="2" fill="none"></path></g><g stroke-linecap="round" transform="translate(146.58232542833412 165.37047078640438) rotate(0 12.861574287342592 12.861574287342606)"><path d="M14.48 -0.29 C17.05 -0.12, 20.81 2.35, 22.73 4.42 C24.66 6.49, 25.93 9.37, 26.01 12.14 C26.09 14.92, 25.03 18.79, 23.23 21.08 C21.43 23.37, 17.93 25.3, 15.2 25.87 C12.47 26.44, 9.3 25.91, 6.84 24.53 C4.39 23.15, 1.5 20.19, 0.48 17.59 C-0.53 14.99, -0.21 11.61, 0.75 8.92 C1.71 6.22, 3.76 2.85, 6.23 1.4 C8.71 -0.06, 14.13 0.38, 15.58 0.18 C17.04 -0.02, 15.09 -0.05, 14.96 0.19 M11.66 0.48 C14.24 0.14, 18.51 0.97, 20.69 2.39 C22.87 3.82, 24.06 6.35, 24.76 9.02 C25.46 11.7, 25.84 15.95, 24.87 18.44 C23.9 20.94, 21.53 22.9, 18.92 23.98 C16.31 25.07, 11.91 25.56, 9.23 24.94 C6.56 24.33, 4.5 22.51, 2.87 20.28 C1.23 18.05, -0.62 14.41, -0.59 11.57 C-0.56 8.73, 0.99 5.09, 3.07 3.25 C5.14 1.41, 10.43 0.91, 11.85 0.53 C13.28 0.15, 11.69 0.82, 11.63 0.96" stroke="none" stroke-width="0" fill="#fa5252"></path><path d="M12.51 0.07 C15.13 -0.09, 18.43 1.25, 20.58 2.98 C22.73 4.72, 24.74 7.82, 25.41 10.49 C26.08 13.16, 26 16.52, 24.62 18.99 C23.25 21.46, 19.79 24.35, 17.18 25.3 C14.56 26.24, 11.45 25.69, 8.95 24.68 C6.45 23.68, 3.6 21.52, 2.18 19.29 C0.76 17.05, 0.14 14.02, 0.43 11.28 C0.72 8.54, 1.86 4.65, 3.92 2.82 C5.98 0.99, 11.08 0.72, 12.8 0.29 C14.52 -0.13, 14.25 0.11, 14.24 0.27 M12.52 0.11 C15.24 -0.12, 18.45 1.62, 20.53 3.14 C22.61 4.65, 24.34 6.64, 25.01 9.18 C25.68 11.72, 25.65 15.92, 24.54 18.38 C23.43 20.83, 20.88 22.68, 18.35 23.89 C15.81 25.1, 11.91 26.38, 9.33 25.65 C6.74 24.91, 4.32 21.74, 2.84 19.48 C1.37 17.23, 0.42 14.8, 0.48 12.11 C0.54 9.41, 1.19 5.25, 3.19 3.29 C5.19 1.32, 10.93 0.79, 12.49 0.31 C14.04 -0.17, 12.7 0.29, 12.53 0.42" stroke="#000000" stroke-width="2" fill="none"></path></g><g stroke-linecap="round" transform="translate(187.3106440049189 112.8523757797555) rotate(0 12.861574287342592 12.861574287342606)"><path d="M15.98 0.38 C18.67 0.81, 21.76 2.48, 23.44 4.71 C25.11 6.93, 26.27 10.84, 26.04 13.73 C25.81 16.62, 23.99 20, 22.07 22.04 C20.16 24.09, 17.34 25.75, 14.57 26.02 C11.8 26.3, 7.77 25.24, 5.44 23.7 C3.12 22.16, 1.35 19.51, 0.62 16.79 C-0.1 14.06, -0.07 9.91, 1.08 7.34 C2.23 4.77, 4.98 2.55, 7.52 1.37 C10.06 0.19, 14.66 0.28, 16.31 0.27 C17.96 0.25, 17.43 0.96, 17.4 1.28 M12.48 0.09 C15 -0.4, 17.74 0.34, 19.95 1.98 C22.15 3.62, 24.86 7.28, 25.71 9.96 C26.56 12.63, 26.35 15.63, 25.02 18.02 C23.69 20.41, 20.27 23.09, 17.73 24.3 C15.2 25.5, 12.5 25.99, 9.8 25.25 C7.1 24.51, 3.26 22.22, 1.52 19.83 C-0.21 17.45, -1.05 13.57, -0.63 10.94 C-0.2 8.31, 2 5.75, 4.08 4.04 C6.17 2.33, 10.63 1.31, 11.89 0.68 C13.16 0.05, 11.53 0.1, 11.67 0.28" stroke="none" stroke-width="0" fill="#9775fa"></path><path d="M10.86 0.35 C13.42 -0.13, 17.21 0.79, 19.65 2.23 C22.1 3.66, 24.75 6.3, 25.53 8.96 C26.3 11.62, 25.41 15.71, 24.32 18.19 C23.23 20.67, 21.3 22.68, 18.99 23.83 C16.67 24.98, 13.08 25.55, 10.42 25.08 C7.76 24.61, 4.81 23.21, 3.02 21.01 C1.22 18.82, -0.34 14.69, -0.35 11.94 C-0.37 9.19, 0.89 6.51, 2.9 4.53 C4.91 2.55, 10.3 0.76, 11.7 0.05 C13.11 -0.66, 11.39 0.1, 11.34 0.26 M12.74 0.72 C15.2 0.41, 18.46 0.73, 20.59 2.33 C22.73 3.92, 24.94 7.62, 25.56 10.29 C26.18 12.96, 25.68 15.86, 24.33 18.35 C22.98 20.85, 19.97 24.24, 17.47 25.25 C14.97 26.26, 11.87 25.28, 9.33 24.41 C6.8 23.55, 3.93 22.37, 2.28 20.05 C0.64 17.74, -0.99 13.3, -0.54 10.54 C-0.09 7.77, 2.68 5.2, 4.97 3.47 C7.26 1.73, 12.01 0.7, 13.19 0.13 C14.37 -0.45, 12.2 -0.09, 12.06 0.03" stroke="#000000" stroke-width="2" fill="none"></path></g><g stroke-linecap="round" transform="translate(222.67997329511127 163.22687507184736) rotate(0 12.861574287342592 12.861574287342606)"><path d="M10.36 -0.13 C12.91 -0.83, 16.77 0.21, 19.13 1.62 C21.5 3.03, 23.54 5.75, 24.57 8.33 C25.59 10.91, 26.16 14.54, 25.3 17.11 C24.43 19.69, 21.72 22.32, 19.38 23.77 C17.04 25.22, 13.92 26.25, 11.26 25.8 C8.6 25.35, 5.22 23.15, 3.43 21.08 C1.63 19.02, 0.68 16.14, 0.49 13.41 C0.29 10.68, 0.62 6.89, 2.26 4.72 C3.9 2.54, 8.92 1.02, 10.32 0.37 C11.72 -0.29, 10.63 0.59, 10.66 0.77 M14.19 -0.38 C16.79 -0.15, 20.79 2.4, 22.82 4.45 C24.84 6.5, 26.37 9.27, 26.34 11.95 C26.32 14.62, 24.38 18.24, 22.66 20.49 C20.93 22.75, 18.77 24.91, 16.01 25.5 C13.26 26.09, 8.76 25.42, 6.12 24.02 C3.49 22.62, 1.1 19.55, 0.21 17.1 C-0.69 14.65, -0.2 11.72, 0.76 9.3 C1.72 6.88, 3.7 4.1, 5.97 2.57 C8.23 1.04, 12.78 0.42, 14.34 0.13 C15.9 -0.15, 15.28 0.69, 15.31 0.88" stroke="none" stroke-width="0" fill="#fab005"></path><path d="M13.22 0.27 C15.95 0.16, 19.87 1.45, 21.86 3.32 C23.84 5.2, 24.79 8.86, 25.13 11.51 C25.47 14.17, 25.23 17.04, 23.9 19.24 C22.57 21.44, 19.72 23.75, 17.14 24.72 C14.55 25.69, 11.05 26.09, 8.39 25.06 C5.73 24.02, 2.59 20.91, 1.17 18.49 C-0.26 16.07, -0.82 13.15, -0.15 10.53 C0.52 7.9, 2.95 4.48, 5.19 2.73 C7.42 0.97, 11.8 0.45, 13.26 -0.02 C14.72 -0.49, 13.9 -0.37, 13.95 -0.07 M12.87 -0.5 C15.48 -0.73, 19.31 1.37, 21.46 3.16 C23.61 4.95, 25.38 7.45, 25.77 10.25 C26.15 13.06, 25.15 17.61, 23.78 19.97 C22.41 22.33, 20.09 23.53, 17.56 24.42 C15.03 25.32, 11.36 26.31, 8.58 25.35 C5.8 24.39, 2.17 21.1, 0.88 18.64 C-0.41 16.18, 0.09 13.2, 0.85 10.59 C1.61 7.97, 3.49 4.73, 5.46 2.93 C7.43 1.13, 11.42 0.3, 12.66 -0.23 C13.89 -0.76, 12.72 -0.6, 12.88 -0.23" stroke="#000000" stroke-width="2" fill="none"></path></g><g stroke-linecap="round"><g transform="translate(168.71052191818944 82.35608879274486) rotate(0 30.273688327189205 -30.025635528696313)" fill-rule="evenodd"><path d="M-1.81 1.47 L18.75 -8.11 L31.26 12.32 L38.42 -4.45 L58.55 -0.12 L56 -21.2 L71.88 -31.52 L54.38 -42.3 L61.11 -59.59 L40.41 -53.12 L28.87 -73.34 L19.74 -53.45 L1.19 -60.39 L6.21 -41.05 L-12.43 -30.24 L6.26 -18.81 L-1.96 -1.79" stroke="none" stroke-width="0" fill="#fab005" fill-rule="evenodd"></path><path d="M0 0 C3.99 -0.6, 9.66 -1.99, 20.06 -6.16 M0 0 C8.71 -1.98, 14.66 -4.05, 20.06 -6.16 M20.06 -6.16 C21.08 -3.79, 23.23 3.4, 30.37 12.3 M20.06 -6.16 C23.63 0.22, 26.62 7.01, 30.37 12.3 M30.37 12.3 C36.12 4.38, 36.69 -1.64, 40.38 -6.15 M30.37 12.3 C33.17 7.54, 36.98 0.77, 40.38 -6.15 M40.38 -6.15 C46.46 -2.29, 55.21 -0.16, 60.18 -0.29 M40.38 -6.15 C46.21 -4.89, 53.48 -1.47, 60.18 -0.29 M60.18 -0.29 C58.86 -7.89, 56.94 -17.51, 54.39 -20 M60.18 -0.29 C58.77 -7.22, 56.64 -15.58, 54.39 -20 M54.39 -20 C60.2 -25.15, 67.55 -26.53, 72.42 -30.21 M54.39 -20 C58.72 -22.57, 63.15 -24.75, 72.42 -30.21 M72.42 -30.21 C67.29 -34.49, 60.49 -35.12, 54.27 -40.52 M72.42 -30.21 C66.15 -34.08, 61.48 -36.86, 54.27 -40.52 M54.27 -40.52 C54.26 -44.39, 58.22 -49.26, 60.38 -60.14 M54.27 -40.52 C57.57 -47.46, 59.08 -55.85, 60.38 -60.14 M60.38 -60.14 C55.42 -57.56, 47.7 -54.93, 40.45 -54.21 M60.38 -60.14 C55.31 -58.18, 49.82 -57.64, 40.45 -54.21 M40.45 -54.21 C35.82 -60.44, 31.56 -67.24, 30.4 -72.36 M40.45 -54.21 C37 -59.96, 34.33 -65.77, 30.4 -72.36 M30.4 -72.36 C26.01 -64.61, 23.94 -60.87, 20.37 -54.22 M30.4 -72.36 C27.48 -65.39, 23.7 -59.49, 20.37 -54.22 M20.37 -54.22 C14.18 -57.02, 12.07 -56.17, 0.42 -59.96 M20.37 -54.22 C16.87 -56.08, 11.29 -56.38, 0.42 -59.96 M0.42 -59.96 C3.14 -52.17, 5.48 -47.82, 5.95 -39.94 M0.42 -59.96 C1.92 -54.88, 3.8 -48.89, 5.95 -39.94 M5.95 -39.94 C-1.49 -38.25, -7.77 -33.02, -11.87 -30.21 M5.95 -39.94 C-1.03 -36.62, -6.92 -32.55, -11.87 -30.21 M-11.87 -30.21 C-6.69 -27.85, 0.69 -22.36, 5.92 -20.13 M-11.87 -30.21 C-6.65 -27.19, -2.54 -24.8, 5.92 -20.13 M5.92 -20.13 C4.43 -14.58, 3.82 -6.47, 0 0 M5.92 -20.13 C4.59 -12.39, 0.68 -4.65, 0 0 M0 0 C0 0, 0 0, 0 0 M0 0 C0 0, 0 0, 0 0" stroke="#000000" stroke-width="2" fill="none"></path></g></g><mask></mask><g stroke-linecap="round"><g transform="translate(176.97394627445465 74.160372259675) rotate(0 22.010263970924683 -21.82991899562637)" fill-rule="evenodd"><path d="M-1.31 -1.95 L15.47 -4.46 L20.12 10.64 L27.73 -4.3 L45.37 -1.42 L39.01 -15.85 L52.76 -23.74 L40.18 -28.91 L43.86 -42.64 L27.88 -40.4 L21.47 -51.84 L15.58 -39.85 L0.57 -44.71 L3.76 -29.07 L-8.28 -20.65 L2.34 -16.43 L1.05 -1.83" stroke="none" stroke-width="0" fill="#ffd43b" fill-rule="evenodd"></path><path d="M0 0 C4.46 -0.66, 10.43 -2.71, 14.59 -4.48 M0 0 C2.38 -0.57, 5.46 -1.43, 14.59 -4.48 M14.59 -4.48 C15.83 1.17, 20.61 4.89, 22.08 8.95 M14.59 -4.48 C15.58 -1.64, 18.43 1.38, 22.08 8.95 M22.08 8.95 C23.28 4.83, 26.52 0.71, 29.36 -4.47 M22.08 8.95 C24.22 5.47, 25.55 3.85, 29.36 -4.47 M29.36 -4.47 C32.88 -2.46, 35.59 -3.85, 43.75 -0.21 M29.36 -4.47 C33.67 -2.55, 37.76 -2.59, 43.75 -0.21 M43.75 -0.21 C43.67 -4.55, 42.91 -5.79, 39.54 -14.54 M43.75 -0.21 C43.11 -4.58, 41.51 -7.68, 39.54 -14.54 M39.54 -14.54 C45.39 -16.98, 47.2 -20.39, 52.65 -21.96 M39.54 -14.54 C43.69 -16.75, 46.72 -18.18, 52.65 -21.96 M52.65 -21.96 C46.86 -24.04, 43.44 -26.18, 39.46 -29.46 M52.65 -21.96 C50.22 -23.69, 46.01 -25.62, 39.46 -29.46 M39.46 -29.46 C41.43 -32.68, 42.69 -36.1, 43.9 -43.72 M39.46 -29.46 C40.66 -33.88, 41.88 -37.49, 43.9 -43.72 M43.9 -43.72 C38.1 -40.9, 33.93 -40.76, 29.41 -39.41 M43.9 -43.72 C38.7 -42.72, 33.84 -40.12, 29.41 -39.41 M29.41 -39.41 C26.35 -42.87, 26.06 -45.14, 22.1 -52.61 M29.41 -39.41 C28.54 -41.46, 26.92 -44.18, 22.1 -52.61 M22.1 -52.61 C20.72 -50.49, 18.83 -45.22, 14.81 -39.42 M22.1 -52.61 C19.77 -47.74, 16.7 -43.69, 14.81 -39.42 M14.81 -39.42 C10.44 -40.59, 2.47 -41.33, 0.31 -43.6 M14.81 -39.42 C10.46 -40.38, 6.98 -41.85, 0.31 -43.6 M0.31 -43.6 C2.7 -39.87, 2.89 -35.36, 4.32 -29.04 M0.31 -43.6 C1.55 -40.3, 2.78 -35.69, 4.32 -29.04 M4.32 -29.04 C-1.63 -26.44, -4.21 -23.38, -8.63 -21.97 M4.32 -29.04 C1.82 -27.33, -0.88 -26.48, -8.63 -21.97 M-8.63 -21.97 C-5.59 -19.75, -3.58 -19.7, 4.3 -14.63 M-8.63 -21.97 C-6.18 -20.61, -2.59 -19.13, 4.3 -14.63 M4.3 -14.63 C4.59 -10.14, 3.24 -7.02, 0 0 M4.3 -14.63 C2.37 -9.55, 2.08 -4.92, 0 0 M0 0 C0 0, 0 0, 0 0 M0 0 C0 0, 0 0, 0 0" stroke="#000000" stroke-width="2" fill="none"></path></g></g><mask></mask></svg>