<svg version="1.1" xmlns="http://www.w3.org/2000/svg" viewBox="0 0 234.6390568900997 305.30615147109467" width="234.6390568900997" height="305.30615147109467"><!-- svg-source:excalidraw --><metadata></metadata><defs><style class="style-fonts">
      </style></defs><g stroke-linecap="round" transform="translate(10 23.75430314443544) rotate(0 99.63017786296405 135.77592416332962)"><path d="M1.56 1.16 L197.5 0.66 L199.88 269.7 L-1.94 272.83" stroke="none" stroke-width="0" fill="#c5bcdd"></path><path d="M0 0 C42.61 -2.94, 81.35 -3.07, 199.26 0 M0 0 C44.45 1.37, 88.99 1.02, 199.26 0 M199.26 0 C198.46 66.82, 198.74 132.92, 199.26 271.55 M199.26 0 C196.8 93.97, 197.23 189.78, 199.26 271.55 M199.26 271.55 C126.01 273.07, 50.47 273.76, 0 271.55 M199.26 271.55 C150.32 273.32, 100.95 272.16, 0 271.55 M0 271.55 C2.66 166.34, 1.57 57.7, 0 0 M0 271.55 C0.81 184.92, 1.31 98.88, 0 0" stroke="#1e1e1e" stroke-width="4" fill="none"></path></g><g stroke-linecap="round"><g transform="translate(144.37774200793706 23.711597513711936) rotate(0 32.90243403785098 32.489438662492766)" fill-rule="evenodd"><path d="M-1.76 0.66 L1.24 63.13 L63.86 65.39 L1.55 1.49" stroke="none" stroke-width="0" fill="#9d90c5" fill-rule="evenodd"></path><path d="M0 0 C-1.14 21.14, -0.78 46.04, 0.62 64.98 M0 0 C1.18 18.15, -0.02 35.5, 0.62 64.98 M0.62 64.98 C12.71 66.2, 27.69 62.59, 65.8 64.11 M0.62 64.98 C20.74 66, 42.49 63.97, 65.8 64.11 M65.8 64.11 C40.36 38.94, 12.18 14.93, 0 0 M65.8 64.11 C42.01 40.3, 18.33 16.83, 0 0 M0 0 C0 0, 0 0, 0 0 M0 0 C0 0, 0 0, 0 0" stroke="#1e1e1e" stroke-width="4" fill="none"></path></g></g><mask></mask><g stroke-linecap="round"><g transform="translate(148.19256691080977 14.306272501954908) rotate(179.75453245381487 35.72739517032545 38.77318136332437)" fill-rule="evenodd"><path d="M0 0 L-0.56 81.7 L76.26 75.5 L-4.81 -4.15" stroke="none" stroke-width="0" fill="#fff" fill-rule="evenodd"></path><path d="M0 0 C-0.12 17.01, -0.23 34.01, -0.56 81.7 M0 0 C-0.21 31.19, -0.42 62.38, -0.56 81.7 M-0.56 81.7 C27.83 79.41, 56.22 77.12, 76.26 75.5 M-0.56 81.7 C16.47 80.32, 33.49 78.95, 76.26 75.5 M76.26 75.5 C53.5 53.13, 30.74 30.77, -4.81 -4.15 M76.26 75.5 C48.19 47.91, 20.11 20.33, -4.81 -4.15 M-4.81 -4.15 C-2.92 -2.52, -1.03 -0.89, 0 0 M-4.81 -4.15 C-3.73 -3.22, -2.66 -2.3, 0 0" stroke="#1e1e1e" stroke-width="4" fill="none"></path></g></g><mask></mask><g stroke-linecap="round" transform="translate(130.12155545355495 188.87262353357198) rotate(319.7152186272332 8.80936873348378 36.35133452560018)"><path d="M4.4 0 C7.28 0, 10.15 0, 13.21 0 C16.15 0, 17.62 1.47, 17.62 4.4 C17.62 18.77, 17.62 33.13, 17.62 68.3 C17.62 71.23, 16.15 72.7, 13.21 72.7 C10.41 72.7, 7.6 72.7, 4.4 72.7 C1.47 72.7, 0 71.23, 0 68.3 C0 51.35, 0 34.39, 0 4.4 C0 1.47, 1.47 0, 4.4 0" stroke="none" stroke-width="0" fill="#8da7b6"></path><path d="M4.4 0 C6.18 0, 7.96 0, 13.21 0 M4.4 0 C7.46 0, 10.51 0, 13.21 0 M13.21 0 C16.15 0, 17.62 1.47, 17.62 4.4 M13.21 0 C16.15 0, 17.62 1.47, 17.62 4.4 M17.62 4.4 C17.62 28.44, 17.62 52.47, 17.62 68.3 M17.62 4.4 C17.62 20.26, 17.62 36.11, 17.62 68.3 M17.62 68.3 C17.62 71.23, 16.15 72.7, 13.21 72.7 M17.62 68.3 C17.62 71.23, 16.15 72.7, 13.21 72.7 M13.21 72.7 C10.93 72.7, 8.64 72.7, 4.4 72.7 M13.21 72.7 C10.06 72.7, 6.9 72.7, 4.4 72.7 M4.4 72.7 C1.47 72.7, 0 71.23, 0 68.3 M4.4 72.7 C1.47 72.7, 0 71.23, 0 68.3 M0 68.3 C0 50.35, 0 32.4, 0 4.4 M0 68.3 C0 50.1, 0 31.9, 0 4.4 M0 4.4 C0 1.47, 1.47 0, 4.4 0 M0 4.4 C0 1.47, 1.47 0, 4.4 0" stroke="#1e1e1e" stroke-width="4" fill="none"></path></g><g stroke-linecap="round" transform="translate(58.237676249351125 137.51988801667) rotate(0 45.07126801573713 45.071268015737104)"><path d="M90.14 45.07 C90.14 47.21, 89.99 49.37, 89.68 51.49 C89.38 53.6, 88.92 55.72, 88.32 57.77 C87.71 59.82, 86.96 61.85, 86.07 63.79 C85.18 65.74, 84.14 67.64, 82.99 69.44 C81.83 71.24, 80.53 72.97, 79.13 74.59 C77.73 76.2, 76.2 77.73, 74.59 79.13 C72.97 80.53, 71.24 81.83, 69.44 82.99 C67.64 84.14, 65.74 85.18, 63.79 86.07 C61.85 86.96, 59.82 87.71, 57.77 88.32 C55.72 88.92, 53.6 89.38, 51.49 89.68 C49.37 89.99, 47.21 90.14, 45.07 90.14 C42.93 90.14, 40.77 89.99, 38.66 89.68 C36.54 89.38, 34.42 88.92, 32.37 88.32 C30.32 87.71, 28.29 86.96, 26.35 86.07 C24.4 85.18, 22.5 84.14, 20.7 82.99 C18.91 81.83, 17.17 80.53, 15.56 79.13 C13.94 77.73, 12.41 76.2, 11.01 74.59 C9.61 72.97, 8.31 71.24, 7.15 69.44 C6 67.64, 4.96 65.74, 4.07 63.79 C3.18 61.85, 2.43 59.82, 1.83 57.77 C1.22 55.72, 0.76 53.6, 0.46 51.49 C0.15 49.37, 0 47.21, 0 45.07 C0 42.93, 0.15 40.77, 0.46 38.66 C0.76 36.54, 1.22 34.42, 1.83 32.37 C2.43 30.32, 3.18 28.29, 4.07 26.35 C4.96 24.4, 6 22.5, 7.15 20.7 C8.31 18.91, 9.61 17.17, 11.01 15.56 C12.41 13.94, 13.94 12.41, 15.56 11.01 C17.17 9.61, 18.91 8.31, 20.7 7.15 C22.5 6, 24.4 4.96, 26.35 4.07 C28.29 3.18, 30.32 2.43, 32.37 1.83 C34.42 1.22, 36.54 0.76, 38.66 0.46 C40.77 0.15, 42.93 0, 45.07 0 C47.21 0, 49.37 0.15, 51.49 0.46 C53.6 0.76, 55.72 1.22, 57.77 1.83 C59.82 2.43, 61.85 3.18, 63.79 4.07 C65.74 4.96, 67.64 6, 69.44 7.15 C71.24 8.31, 72.97 9.61, 74.59 11.01 C76.2 12.41, 77.73 13.94, 79.13 15.56 C80.53 17.17, 81.83 18.91, 82.99 20.7 C84.14 22.5, 85.18 24.4, 86.07 26.35 C86.96 28.29, 87.71 30.32, 88.32 32.37 C88.92 34.42, 89.38 36.54, 89.68 38.66 C89.99 40.77, 90.07 44, 90.14 45.07 C90.22 46.14, 90.22 44, 90.14 45.07" stroke="none" stroke-width="0" fill="#c5e8fa"></path><path d="M90.14 45.07 C90.14 47.21, 89.99 49.37, 89.68 51.49 C89.38 53.6, 88.92 55.72, 88.32 57.77 C87.71 59.82, 86.96 61.85, 86.07 63.79 C85.18 65.74, 84.14 67.64, 82.99 69.44 C81.83 71.24, 80.53 72.97, 79.13 74.59 C77.73 76.2, 76.2 77.73, 74.59 79.13 C72.97 80.53, 71.24 81.83, 69.44 82.99 C67.64 84.14, 65.74 85.18, 63.79 86.07 C61.85 86.96, 59.82 87.71, 57.77 88.32 C55.72 88.92, 53.6 89.38, 51.49 89.68 C49.37 89.99, 47.21 90.14, 45.07 90.14 C42.93 90.14, 40.77 89.99, 38.66 89.68 C36.54 89.38, 34.42 88.92, 32.37 88.32 C30.32 87.71, 28.29 86.96, 26.35 86.07 C24.4 85.18, 22.5 84.14, 20.7 82.99 C18.91 81.83, 17.17 80.53, 15.56 79.13 C13.94 77.73, 12.41 76.2, 11.01 74.59 C9.61 72.97, 8.31 71.24, 7.15 69.44 C6 67.64, 4.96 65.74, 4.07 63.79 C3.18 61.85, 2.43 59.82, 1.83 57.77 C1.22 55.72, 0.76 53.6, 0.46 51.49 C0.15 49.37, 0 47.21, 0 45.07 C0 42.93, 0.15 40.77, 0.46 38.66 C0.76 36.54, 1.22 34.42, 1.83 32.37 C2.43 30.32, 3.18 28.29, 4.07 26.35 C4.96 24.4, 6 22.5, 7.15 20.7 C8.31 18.91, 9.61 17.17, 11.01 15.56 C12.41 13.94, 13.94 12.41, 15.56 11.01 C17.17 9.61, 18.91 8.31, 20.7 7.15 C22.5 6, 24.4 4.96, 26.35 4.07 C28.29 3.18, 30.32 2.43, 32.37 1.83 C34.42 1.22, 36.54 0.76, 38.66 0.46 C40.77 0.15, 42.93 0, 45.07 0 C47.21 0, 49.37 0.15, 51.49 0.46 C53.6 0.76, 55.72 1.22, 57.77 1.83 C59.82 2.43, 61.85 3.18, 63.79 4.07 C65.74 4.96, 67.64 6, 69.44 7.15 C71.24 8.31, 72.97 9.61, 74.59 11.01 C76.2 12.41, 77.73 13.94, 79.13 15.56 C80.53 17.17, 81.83 18.91, 82.99 20.7 C84.14 22.5, 85.18 24.4, 86.07 26.35 C86.96 28.29, 87.71 30.32, 88.32 32.37 C88.92 34.42, 89.38 36.54, 89.68 38.66 C89.99 40.77, 90.07 44, 90.14 45.07 C90.22 46.14, 90.22 44, 90.14 45.07" stroke="#1e1e1e" stroke-width="4" fill="none"></path></g><g stroke-linecap="round"><g transform="translate(111.302759806425 153.54686569172725) rotate(0 10.586614355054735 18.597647945206276)"><path d="M0 0 C2.07 1.07, 8.89 2.87, 12.42 6.42 C15.95 9.98, 19.86 16.22, 21.17 21.35 C22.49 26.48, 20.44 34.55, 20.3 37.2 M0 0 C2.07 1.07, 8.89 2.87, 12.42 6.42 C15.95 9.98, 19.86 16.22, 21.17 21.35 C22.49 26.48, 20.44 34.55, 20.3 37.2" stroke="#1e1e1e" stroke-width="4" fill="none"></path></g></g><mask></mask></svg>