<svg version="1.1" xmlns="http://www.w3.org/2000/svg" viewBox="0 0 209.61407470703125 177.45468139648438" width="209.61407470703125" height="177.45468139648438"><!-- svg-source:excalidraw --><metadata><!-- payload-type:application/vnd.excalidraw+json --><!-- payload-version:2 --><!-- payload-start -->eyJ2ZXJzaW9uIjoiMSIsImVuY29kaW5nIjoiYnN0cmluZyIsImNvbXByZXNzZWQiOnRydWUsImVuY29kZWQiOiJ4nO2Ya0/bSFx1MDAxNIa/51dE6Vdi5n5BWq2AXHUwMDA2StXSXHUwMDBiXHUwMDBiW3ZVVU48SVxmju21JyG04r/vXHUwMDE5XHUwMDAzdrDjilx1MDAxNZG6SDhSXHUwMDEyn7mf88w7x/7R6XZ79jo1vZ1uzyxHflx1MDAxNFx1MDAwNpl/1dty9oXJ8jCJoYhcdTAwMTT3eTLPRkXNqbVpvrO9PfOzS2PTyFx1MDAxZlx1MDAxOW9cdTAwMTHmcz/K7TxcYlx1MDAxM2+UzLZDa2b57+772J+Z39JkXHUwMDE22MyrXHUwMDA26ZsgtEl2O5aJzMzENofe/4b7bvdH8VxyJWHgRsxO+stkb5HNPy5cdTAwMGWyizg69s+S90XTotL9XHUwMDEyMjOyfjyJTFW0XHUwMDA0u1x1MDAxNtKjglx1MDAwYqUkQkRRWpZeQ2lcdTAwMWZj6Vx1MDAxMUI0UlCJMqpkWX5cdTAwMTVcdTAwMDZ2XG51sNKewFxmSSaRRFx1MDAxNFx1MDAxM15WmZpwMrWuXHUwMDBll1x1MDAxZeNMKEy1YFxu+inr3M5pp4tKS26z5NLsJ1x1MDAxMXhcdTAwMDAm/lxuXHUwMDFi96mmPfRHl5MsmcdBWcdmfpynflx1MDAwNn6q6o3DKDqx10XvXHUwMDEwIXBtrzbGn3dLIDV7WytcdTAwMTh0Mo1N7mKBS2uS+qPQOndhVK3CzTA9XG6KsH2t5pRBwI9cXNzieVx1MDAxNJXmMFx1MDAwZYyLRm94MHgwXFxcdTAwMWPcXHJ3XHUwMDFm9Cqi9M5yU03emKBwtiaIcHBzWVLxqkndeJzEXHUwMDA1uphcbk1cdTAwMDQlrGpcdTAwMTbmr4E+W/Q6XHUwMDA2gk1cdTAwMTVcdTAwMDM3tcFcbpnVXHUwMDEy52ng3zbBUmEtqdRI8MoxUVx1MDAxOF/W11x1MDAxZiWjy2qUzsqyarCTIZrTwUXeN+fzN8khXHUwMDFhnl1cdTAwMDfTJuwmisI0r6GOXHUwMDExRZ5cdTAwMTBcdTAwMWNmxIligPRD1qX0kOJcZmOGJUZYqFx1MDAwNuqMeJhcdTAwMTHMkZJcblx1MDAxNrWOdKo9rYWSWDNFoK5+XHUwMDAxvVx1MDAwNfSDx4JOWkFHiFx1MDAxMcFcYlpcdTAwMDc6U22gXHUwMDEzhDRcdTAwMTZSXHUwMDEwtXHQXHUwMDE5W1x1MDAxMdAngS5m0dHout8/XHUwMDFkf76YfzJ/nZ8vk5Mm6DBGg3IuPFx1MDAwNIKLKZBMXHUwMDE5V1x1MDAwZilcdTAwMDdAgXKQYcxcdTAwMTWItSBccsqRx4hSmoFzXHUwMDFkyWsgZ9RcdTAwMDM7eFBTzfhcdTAwMDPJf6H8IeWHT6acKFx1MDAwMUczhGNccuSiYSzVXHUwMDFj1ElQprnYOOSaYvFcdTAwMWYgL81pXHUwMDEyrqYx7qr+dStiipvy/9et9bVbIHVXXHUwMDEzz6q3Tq3XXuTndj+ZzUJcdTAwMGLL/OimWF9Obv3M7kFMw3hSLzNx0FJStNrNsuRqavxcdTAwMDYh0K5e9lx1MDAxMzE4fvfp+z9n51x1MDAwN1x1MDAwYvJuustzf5KefshcdTAwMWYnXHUwMDA27sjTyFx1MDAwMYQkxazaqFx1MDAwNeDaw5w4NaRcZnJAXFxp171cdTAwMTZcdTAwMTDtSaqIWp/VKY9KXHSQgZ5wzMWLXGa0ysCbp8tcdTAwMDBmXGbBXHUwMDFlZOtcdTAwMGU72nrYuVNcdTAwMDDDbkCbPuxcdTAwMTSCnyq7+VU6sFx1MDAwNlB39ZtsPnNcclx1MDAxOKp08sVcYnQ007M04eNcdTAwMDE5/fbtcVx1MDAxYSBcdTAwMTn4QpFcdTAwMTZccpCelpDvUsUg5ZW0mfVCXHLFpOBr811MPYwhXHUwMDA3Y1xcIPeAJ180oE1cdTAwMDOOnp7wMkqI0mpdKrByJtckQFOKJVwiXHUwMDFiT3dhz+n/QSbQX8Pnrb2B5jOXgH5kP+9cdTAwMWbqwdvlOJzu6tf4j+DLh8dJXHUwMDAwhjSAobZnXHUwMDAy8CCXXHUwMDEwTFx1MDAwNl5SXFwzXZ0x91wioFxcXHUwMDA3UrCfPFx1MDAxNVBcdTAwMGZcdFx1MDAxOOQlXHJol4C3XHUwMDFieOZ1by9cdTAwMDTjjfc4rlWrXHUwMDA2YMjzXGJcdTAwMTNIbF5cdTAwMDTc1vvlXCLQiqe7KjCfj1x1MDAwMHTu5tbz0/TEgs9LTFx1MDAwML4wOFx0v9++ythasVmTgo2vmN4ngVx1MDAxOcT+MKr7v7dcYs3VXnOvvVx1MDAxYY/HI6N6nTv03D4zXHUwMDA1ojedm39cdTAwMDHuLKK6In0=<!-- payload-end --></metadata><defs><style class="style-fonts">
      </style></defs><rect x="0" y="0" width="209.61407470703125" height="177.45468139648438" fill="#fffce8"></rect><g stroke-linecap="round" transform="translate(10 10) rotate(0 94.80703735351562 78.72734069824219)"><path d="M32 0 C69.62 -0.7, 106.6 2.52, 157.61 0 M32 0 C76 0.01, 119.06 0.38, 157.61 0 M157.61 0 C178.52 -1.05, 190.3 10.02, 189.61 32 M157.61 0 C177.9 0.27, 191.03 11.02, 189.61 32 M189.61 32 C189.13 56.44, 191.01 83.87, 189.61 125.45 M189.61 32 C189.6 68.53, 191.21 106.23, 189.61 125.45 M189.61 125.45 C191.4 148.39, 180.22 157.9, 157.61 157.45 M189.61 125.45 C188.09 147.21, 176.71 156.69, 157.61 157.45 M157.61 157.45 C110.05 157.3, 63.73 154.66, 32 157.45 M157.61 157.45 C122.12 156.49, 88.07 156.93, 32 157.45 M32 157.45 C12.29 156.65, 0.51 147.81, 0 125.45 M32 157.45 C12.36 155.86, 1.09 145, 0 125.45 M0 125.45 C-0.29 87.99, 0.11 52.1, 0 32 M0 125.45 C-0.05 99.08, 0.69 73.8, 0 32 M0 32 C-1.19 9.37, 10.98 -0.25, 32 0 M0 32 C2.11 9.62, 9.44 1.09, 32 0" stroke="#1e1e1e" stroke-width="2" fill="none"></path></g><g stroke-linecap="round" transform="translate(73.300048828125 50.13749694824219) rotate(0 21.071075439453125 19.998435974121094)"><path d="M16.85 0.61 C21.05 -0.55, 27.11 0.18, 31.05 2.15 C35 4.12, 38.78 8.45, 40.51 12.43 C42.23 16.41, 42.76 22, 41.4 26.03 C40.04 30.06, 36.2 34.27, 32.34 36.62 C28.49 38.97, 22.78 40.69, 18.27 40.15 C13.76 39.61, 8.26 36.62, 5.29 33.37 C2.31 30.12, 0.53 24.93, 0.42 20.66 C0.31 16.39, 1.84 11.19, 4.62 7.75 C7.39 4.32, 14.86 1.22, 17.06 0.06 C19.27 -1.1, 17.75 0.47, 17.83 0.79 M19.47 -0.01 C23.64 -0.53, 29.42 0.69, 33.06 3.33 C36.71 5.97, 40.26 11.66, 41.32 15.81 C42.38 19.97, 41.51 24.44, 39.42 28.26 C37.32 32.08, 32.75 36.99, 28.73 38.75 C24.7 40.5, 19.53 39.98, 15.27 38.79 C11.01 37.61, 5.58 35.24, 3.17 31.63 C0.76 28.02, 0.24 21.37, 0.81 17.12 C1.37 12.87, 3.29 9.08, 6.54 6.13 C9.78 3.17, 18.13 0.33, 20.28 -0.61 C22.43 -1.55, 19.5 0.02, 19.42 0.49" stroke="#1e1e1e" stroke-width="2" fill="none"></path></g><g stroke-linecap="round"><g transform="translate(98.6500244140625 88.13751220703125) rotate(0 0.214447021484375 21.937881469726562)"><path d="M0.31 -0.47 C0.34 6.77, 0.1 36.51, 0.09 43.92 M-0.19 0.48 C0.02 8.04, 1.14 37.28, 1.16 44.64" stroke="#1e1e1e" stroke-width="2" fill="none"></path></g></g><mask></mask><g stroke-linecap="round"><g transform="translate(73.32501220703125 146.375) rotate(0 14.869140625 -9.188674926757812)"><path d="M-0.57 -0.65 C4.39 -3.79, 23.9 -16.66, 28.79 -19.53 M1.34 1.62 C6.75 -1.35, 26.03 -15.01, 31 -18.6" stroke="#1e1e1e" stroke-width="2" fill="none"></path></g></g><mask></mask><g stroke-linecap="round"><g transform="translate(117.01251220703125 145.20001220703125) rotate(0 -8.923828125 -6.5582122802734375)"><path d="M-0.52 -0.22 C-3.58 -2.48, -15.46 -10.91, -18.39 -13.13 M0.21 -0.81 C-2.69 -3.01, -14.3 -10.38, -17.43 -12.43" stroke="#1e1e1e" stroke-width="2" fill="none"></path></g></g><mask></mask><g stroke-linecap="round"><g transform="translate(53.2750244140625 109.64999389648438) rotate(0 40.323822021484375 1.533203125)"><path d="M-0.09 0.8 C13.33 1.19, 66.94 2.55, 80.41 2.87 M-1.6 0.18 C11.66 0.7, 65.74 3.69, 79.34 4.31" stroke="#1e1e1e" stroke-width="2" fill="none"></path></g></g><mask></mask></svg>